<?xml version="1.0" encoding="utf-8"?>
<!-- Generator: Adobe Illustrator 16.0.0, SVG Export Plug-In . SVG Version: 6.00 Build 0)  -->
<!DOCTYPE svg PUBLIC "-//W3C//DTD SVG 1.1//EN" "http://www.w3.org/Graphics/SVG/1.1/DTD/svg11.dtd">
<svg version="1.1" id="Layer_1" xmlns="http://www.w3.org/2000/svg" xmlns:xlink="http://www.w3.org/1999/xlink" x="0px" y="0px"
	 width="595.28px" height="191.84px" viewBox="0 0 595.28 191.84" enable-background="new 0 0 595.28 191.84" xml:space="preserve">
<g>
	<path fill="#AFAFAF" d="M87.038,72.167v18.894h45.161c-1.382,10.599-4.915,18.357-10.292,23.81
		c-6.605,6.604-16.897,13.826-34.869,13.826c-27.803,0-49.54-22.426-49.54-50.231c0-27.804,21.736-50.23,49.54-50.23
		c14.977,0,25.961,5.914,34.025,13.519l13.288-13.288C123.135,17.558,108.084,9.263,87.038,9.263
		c-38.096,0-70.124,31.031-70.124,69.125c0,38.096,32.027,69.125,70.124,69.125c20.584,0,36.097-6.757,48.234-19.355
		c12.442-12.44,16.36-30.028,16.36-44.161c0-4.378-0.309-8.449-1-11.829H87.038z"/>
	<path fill="#AFAFAF" d="M208.085,56.807c-24.655,0-44.779,18.74-44.779,44.625c0,25.653,20.124,44.625,44.779,44.625
		c24.653,0,44.777-18.896,44.777-44.625C252.862,75.547,232.738,56.807,208.085,56.807 M208.085,128.467
		c-13.519,0-25.194-11.14-25.194-27.035c0-16.055,11.676-27.038,25.194-27.038c13.518,0,25.192,10.983,25.192,27.038
		C233.277,117.327,221.603,128.467,208.085,128.467"/>
	<path fill="#AFAFAF" d="M427.596,66.792h-0.691c-4.377-5.224-12.828-9.985-23.502-9.985c-22.275,0-41.707,19.431-41.707,44.625
		c0,25.037,19.432,44.625,41.707,44.625c10.674,0,19.125-4.764,23.502-10.14h0.691v6.221c0,17.052-9.141,26.19-23.811,26.19
		c-11.98,0-19.432-8.602-22.502-15.899l-17.053,7.067c4.914,11.826,17.896,26.344,39.555,26.344
		c22.967,0,42.396-13.518,42.396-46.466V59.11h-18.586V66.792z M405.09,128.467c-13.518,0-23.807-11.521-23.807-27.035
		c0-15.746,10.289-27.038,23.807-27.038c13.365,0,23.811,11.52,23.811,27.19C428.979,117.177,418.455,128.467,405.09,128.467"/>
	<path fill="#AFAFAF" d="M307.932,56.807c-24.653,0-44.777,18.74-44.777,44.625c0,25.653,20.124,44.625,44.777,44.625
		c24.654,0,44.779-18.896,44.779-44.625C352.711,75.547,332.586,56.807,307.932,56.807 M307.932,128.467
		c-13.517,0-25.193-11.14-25.193-27.035c0-16.055,11.676-27.038,25.193-27.038c13.52,0,25.193,10.983,25.193,27.038
		C333.125,117.327,321.451,128.467,307.932,128.467"/>
	<rect x="461.545" y="11.106" fill="#AFAFAF" width="19.277" height="134.947"/>
	<path fill="#AFAFAF" d="M540.346,128.467c-9.984,0-17.049-4.531-21.656-13.518l59.676-24.655l-1.996-5.069
		c-3.688-9.985-15.055-28.419-38.174-28.419c-22.963,0-42.09,18.049-42.09,44.624c0,25.039,18.895,44.624,44.24,44.624
		c20.432,0,32.26-12.521,37.174-19.737l-15.205-10.141C557.244,123.551,550.33,128.467,540.346,128.467z M538.965,73.55
		c7.908,0,14.67,4.07,16.896,9.831l-40.324,16.667C515.537,81.308,528.824,73.55,538.965,73.55"/>
</g>
</svg>
