<?xml version="1.0" encoding="utf-8"?>
<!-- Generator: Adobe Illustrator 16.0.0, SVG Export Plug-In . SVG Version: 6.00 Build 0)  -->
<!DOCTYPE svg PUBLIC "-//W3C//DTD SVG 1.1//EN" "http://www.w3.org/Graphics/SVG/1.1/DTD/svg11.dtd">
<svg version="1.1" xmlns="http://www.w3.org/2000/svg" xmlns:xlink="http://www.w3.org/1999/xlink" x="0px" y="0px"
	 width="595.28px" height="191.84px" viewBox="0 0 595.28 191.84" enable-background="new 0 0 595.28 191.84" xml:space="preserve">
<g id="Layer_1" display="none">
	<g display="inline">
		<path fill="#AFAFAF" d="M87.038,72.167v18.894h45.161c-1.382,10.599-4.915,18.357-10.292,23.81
			c-6.605,6.604-16.897,13.826-34.869,13.826c-27.803,0-49.54-22.426-49.54-50.231c0-27.804,21.736-50.23,49.54-50.23
			c14.977,0,25.961,5.914,34.025,13.519l13.288-13.288C123.135,17.558,108.084,9.263,87.038,9.263
			c-38.096,0-70.124,31.031-70.124,69.125c0,38.096,32.027,69.125,70.124,69.125c20.584,0,36.097-6.757,48.234-19.355
			c12.442-12.44,16.36-30.028,16.36-44.161c0-4.378-0.309-8.449-1-11.829H87.038z"/>
		<path fill="#AFAFAF" d="M208.085,56.807c-24.655,0-44.779,18.74-44.779,44.625c0,25.653,20.124,44.625,44.779,44.625
			c24.653,0,44.777-18.896,44.777-44.625C252.862,75.547,232.738,56.807,208.085,56.807 M208.085,128.467
			c-13.519,0-25.194-11.14-25.194-27.035c0-16.055,11.676-27.038,25.194-27.038c13.518,0,25.192,10.983,25.192,27.038
			C233.277,117.327,221.603,128.467,208.085,128.467"/>
		<path fill="#AFAFAF" d="M427.596,66.792h-0.691c-4.377-5.224-12.828-9.985-23.502-9.985c-22.275,0-41.707,19.431-41.707,44.625
			c0,25.037,19.432,44.625,41.707,44.625c10.674,0,19.125-4.764,23.502-10.14h0.691v6.221c0,17.052-9.141,26.19-23.811,26.19
			c-11.98,0-19.432-8.602-22.502-15.899l-17.053,7.067c4.914,11.826,17.896,26.344,39.555,26.344
			c22.967,0,42.396-13.518,42.396-46.466V59.11h-18.586V66.792z M405.09,128.467c-13.518,0-23.807-11.521-23.807-27.035
			c0-15.746,10.289-27.038,23.807-27.038c13.365,0,23.811,11.52,23.811,27.19C428.979,117.177,418.455,128.467,405.09,128.467"/>
		<path fill="#AFAFAF" d="M307.932,56.807c-24.653,0-44.777,18.74-44.777,44.625c0,25.653,20.124,44.625,44.777,44.625
			c24.654,0,44.779-18.896,44.779-44.625C352.711,75.547,332.586,56.807,307.932,56.807 M307.932,128.467
			c-13.517,0-25.193-11.14-25.193-27.035c0-16.055,11.676-27.038,25.193-27.038c13.52,0,25.193,10.983,25.193,27.038
			C333.125,117.327,321.451,128.467,307.932,128.467"/>
		<rect x="461.545" y="11.106" fill="#AFAFAF" width="19.277" height="134.947"/>
		<path fill="#AFAFAF" d="M540.346,128.467c-9.984,0-17.049-4.531-21.656-13.518l59.676-24.655l-1.996-5.069
			c-3.688-9.985-15.055-28.419-38.174-28.419c-22.963,0-42.09,18.049-42.09,44.624c0,25.039,18.895,44.624,44.24,44.624
			c20.432,0,32.26-12.521,37.174-19.737l-15.205-10.141C557.244,123.551,550.33,128.467,540.346,128.467z M538.965,73.55
			c7.908,0,14.67,4.07,16.896,9.831l-40.324,16.667C515.537,81.308,528.824,73.55,538.965,73.55"/>
	</g>
</g>
<g id="Layer_2" display="none">
	<g display="inline">
		<path fill="#AFAFAF" d="M6.513,37.411h59.506c-0.003,19.835,0,39.67-0.003,59.506c-19.832,0-39.667,0-59.502,0V37.411
			L6.513,37.411z"/>
		<path fill="#AFAFAF" d="M72.094,37.411H131.6c0,19.835,0.003,39.67-0.003,59.506c-19.832-0.003-39.667,0-59.499,0
			C72.091,77.081,72.094,57.246,72.094,37.411L72.094,37.411z"/>
		<path fill="#AFAFAF" d="M543.121,60.083c5.485-3.57,12.572-3.903,18.756-2.202c0.054,3.674,0.007,7.352,0.024,11.029
			c-2.937-1.294-6.393-2.137-9.485-0.868c-2.451,0.972-3.909,3.488-4.291,6.004c-0.462,3.191-0.161,6.426-0.24,9.635
			c6.276,0.014,12.552,0.003,18.828,0.007c0.046-4.075-0.051-8.152,0.053-12.227c4.268-1.215,8.488-2.577,12.734-3.856
			c0.036,5.368-0.051,10.739,0.047,16.111c4.242-0.061,8.487-0.015,12.733-0.029v10.45c-4.261-0.175-8.523-0.046-12.784-0.061
			c0.019,6.008,0.004,12.015,0.008,18.027c0.067,3.327-0.179,6.673,0.211,9.989c0.235,1.955,0.947,4.121,2.78,5.133
			c3.069,1.719,6.966,0.968,9.785-0.919v10.554c-3.678,1.598-7.787,2.084-11.765,1.801c-3.774-0.278-7.685-1.65-10.147-4.652
			c-2.845-3.393-3.577-7.984-3.635-12.28c-0.032-9.221,0.004-18.441-0.014-27.666c-6.28-0.004-12.559-0.007-18.835,0.003
			c-0.007,14.471-0.004,28.942-0.004,43.413c-4.288,0-8.58,0-12.869,0c0-14.467-0.019-28.931,0.008-43.398
			c-2.985-0.057-5.973,0.014-8.957-0.046c0.011-3.435,0.024-6.873-0.007-10.311c2.97-0.068,5.943-0.04,8.921-0.018
			c0.217-4.567-0.479-9.267,0.885-13.716C537.017,65.974,539.582,62.35,543.121,60.083L543.121,60.083z"/>
		<path fill="#AFAFAF" d="M267.578,60.834c2.595-0.393,5.404,0.493,7.123,2.523c2.016,2.223,2.388,5.761,0.894,8.359
			c-1.651,2.931-5.346,4.292-8.566,3.588c-3.342-0.601-6.126-3.707-5.976-7.169C260.955,64.49,264.003,61.242,267.578,60.834
			L267.578,60.834z"/>
		<path fill="#AFAFAF" d="M168.948,62.428c6.24,0,12.477,0,18.717,0c5.826,14.792,11.694,29.571,17.526,44.363
			c1.491,3.699,2.884,7.441,4.446,11.111c7.495-18.484,15.097-36.922,22.534-55.431c6-0.097,12.005-0.021,18.009-0.036
			c-0.014,25.013-0.007,50.027-0.003,75.042c-4.332-0.011-8.66,0.035-12.988-0.025c0.047-18.459-0.003-36.919,0.021-55.382
			c0.007-0.829-0.021-1.658-0.079-2.487c-0.254,0.386-0.479,0.787-0.675,1.201c-7.438,18.896-15.018,37.738-22.413,56.651
			c-3.081,0.11-6.165,0.007-9.249,0.057c-7.673-18.896-15.25-37.833-22.884-56.743c-0.2-0.393-0.415-0.776-0.647-1.144
			c-0.157,8.088-0.025,16.183-0.068,24.271c0.003,11.2-0.007,22.401,0.003,33.603c-4.085,0.01-8.17,0-12.251,0.003
			C168.944,112.463,168.941,87.446,168.948,62.428L168.948,62.428z"/>
		<path fill="#AFAFAF" d="M302.995,83.639c6.212-1.769,12.909-1.697,19.117,0.057c1.279,0.357,2.52,0.854,3.67,1.53
			c-0.071,4.099,0,8.202-0.039,12.305c-4.148-3.17-9.413-5.179-14.688-4.514c-4.188,0.379-8.185,2.552-10.689,5.937
			c-3.221,4.195-3.964,9.767-3.41,14.899c0.415,4.017,2.077,8.03,5.2,10.692c3.245,2.885,7.795,3.907,12.041,3.585
			c4.195-0.481,8.155-2.259,11.547-4.738c0.036,3.885-0.018,7.77,0.028,11.654c-5.261,3.131-11.568,3.938-17.59,3.642
			c-6.162-0.325-12.306-2.658-16.766-6.99c-4.846-4.671-7.477-11.333-7.788-18.006c-0.314-6.937,1.098-14.174,5.089-19.967
			C292.063,88.783,297.295,85.284,302.995,83.639L302.995,83.639z"/>
		<path fill="#AFAFAF" d="M443.576,82.821c5.95-1.047,12.18-0.279,17.813,1.854c0.007,3.946,0,7.888,0.003,11.83
			c-3.935-2.705-8.741-4.16-13.517-3.992c-2.405,0.093-5.05,1.111-6.146,3.398c-0.872,2.263-0.269,5.229,1.865,6.584
			c3.648,2.44,8.002,3.477,11.783,5.664c2.977,1.673,5.865,3.859,7.373,7.012c2.834,5.904,1.634,13.706-3.349,18.109
			c-4.757,4.446-11.608,5.676-17.909,5.439c-4.474-0.289-8.97-1.172-13.084-3.002c0.019-4.149-0.024-8.295,0.021-12.441
			c3.46,2.513,7.451,4.311,11.676,5.04c2.941,0.479,6.141,0.5,8.882-0.814c2.623-1.306,3.095-5.032,1.536-7.313
			c-1.458-1.759-3.599-2.727-5.618-3.678c-3.792-1.705-7.776-3.131-11.107-5.687c-2.341-1.826-4.114-4.399-4.807-7.301
			c-1.029-4.279-0.708-9.1,1.779-12.838C433.611,86.331,438.548,83.718,443.576,82.821L443.576,82.821z"/>
		<path fill="#AFAFAF" d="M354.56,84.515c3.553-2.134,8.066-2.313,11.944-1.008c-0.018,4.292,0,8.584-0.011,12.877
			c-2.537-1.644-5.703-2.348-8.698-2.044c-3.653,0.415-6.548,3.22-8.049,6.437c-1.63,3.406-1.938,7.259-1.834,10.983
			c0,8.573,0.004,17.147,0,25.721c-4.23,0-8.459,0-12.688,0c-0.011-17.919,0.015-35.843-0.011-53.762
			c4.235-0.054,8.471-0.033,12.706-0.011c-0.019,3.077,0,6.154-0.011,9.235C349.285,89.594,351.333,86.341,354.56,84.515
			L354.56,84.515z"/>
		<path fill="#AFAFAF" d="M262.22,83.707c4.267-0.018,8.539-0.061,12.806,0.022c-0.05,17.916-0.003,35.835-0.021,53.751
			c-4.26,0-8.521,0-12.777,0C262.217,119.558,262.231,101.634,262.22,83.707L262.22,83.707z"/>
		<g>
			<path fill="#AFAFAF" d="M408.612,84.886c-5.732-2.608-12.248-2.958-18.424-2.173c-6.486,0.819-12.802,3.871-16.919,9.042
				c-3.76,4.618-5.59,10.55-5.939,16.437c-0.519,6.937,0.64,14.3,4.713,20.089c3.472,4.997,8.95,8.431,14.868,9.696
				c4.946,1.04,10.121,1.043,15.068,0.015c5.786-1.19,11.189-4.393,14.774-9.117c3.502-4.45,5.261-10.061,5.657-15.661
				c0.404-5.736-0.175-11.676-2.559-16.966C417.618,91.281,413.587,87.131,408.612,84.886z M407.422,120.937
				c-1.229,2.767-3.481,5.104-6.322,6.212c-3.323,1.276-7.059,1.351-10.489,0.461c-3.492-0.918-6.454-3.441-8.066-6.654
				c-2.073-4.139-2.384-8.925-1.955-13.463c0.39-4.128,1.826-8.374,4.972-11.223c2.28-2.13,5.39-3.17,8.467-3.342
				c3.866-0.253,7.983,0.84,10.765,3.653c2.974,2.923,4.124,7.166,4.442,11.211C409.463,112.22,409.28,116.834,407.422,120.937z"/>
			<path fill="#AFAFAF" d="M522.921,97.803c-1.98-5.339-5.943-9.957-11.054-12.512c-5.861-2.959-12.681-3.392-19.104-2.595
				c-5.178,0.665-10.268,2.63-14.221,6.1c-4.824,4.157-7.655,10.268-8.487,16.519c-0.794,6.251-0.525,12.834,2.022,18.685
				c2.444,5.739,7.27,10.4,13.073,12.684c5.729,2.256,12.098,2.51,18.127,1.533c6.165-1.019,12.006-4.26,15.822-9.249
				c4.077-5.153,5.833-11.823,5.822-18.32C525.012,106.298,524.469,101.888,522.921,97.803z M511.313,116.037
				c-0.493,2.831-1.473,5.654-3.327,7.895c-1.869,2.252-4.649,3.624-7.52,4.046c-3.08,0.461-6.326,0.24-9.206-1
				c-3.109-1.316-5.519-4.007-6.787-7.103c-1.526-3.688-1.83-7.772-1.526-11.719c0.294-3.82,1.376-7.741,3.899-10.71
				c2.302-2.774,5.833-4.307,9.392-4.507c3.635-0.254,7.517,0.586,10.312,3.042c2.577,2.137,4.003,5.339,4.657,8.563
				C511.942,108.324,511.935,112.238,511.313,116.037z"/>
		</g>
		<path fill="#AFAFAF" d="M6.513,102.989c19.835,0.006,39.67-0.004,59.506,0.006c0.003,19.836,0,39.668,0,59.503H6.513V102.989
			L6.513,102.989z"/>
		<path fill="#AFAFAF" d="M72.098,102.995c19.832-0.006,39.667-0.003,59.502-0.003c0,19.835,0,39.671,0,59.506H72.094
			C72.098,142.663,72.091,122.827,72.098,102.995L72.098,102.995z"/>
	</g>
</g>
<g id="Layer_3" display="none">
	<path display="inline" fill-rule="evenodd" clip-rule="evenodd" fill="#AFAFAF" d="M69.636,146.509H49.074v-25.862
		c0-5.214-2.295-9.169-6.425-9.317c-4.066-0.146-6.747,4.316-6.747,8.836v26.344H15.18v-23.613c0-7.203,2.036-13.278,5.622-17.992
		c3.974-5.222,11.282-10.085,20.08-10.603c8.669-0.509,14.824,2.832,19.759,7.068c4.54,3.897,8.995,11.205,8.995,17.669
		C69.636,125.506,69.636,146.509,69.636,146.509z M280.39,83.86c0-3.13,0.354-6.371-0.321-8.674
		c-0.849-2.899-3.492-5.583-5.943-6.586c-6.274-2.568-12.03,1.521-13.655,5.623c-1.021,2.578-0.642,6.435-0.642,10.281
		c0,20.038,0,43.027,0,62.006c6.854,0,13.708,0,20.562,0C280.39,127.003,280.389,104.083,280.39,83.86z M346.734,104.261
		c-3.019,3.726-5.854,8.963-6.266,15.1c-0.679,10.128,3.301,16.714,7.871,21.365c3.937,4.005,9.735,7.524,16.706,8.032
		c8.507,0.618,14.633-2.154,19.599-5.944c4.657-3.554,8.565-9.495,9.799-15.903c0.717-3.724,0.482-12.369,0.482-12.369
		s0-33.694,0-37.459c0-3.765-3.321-7.171-6.747-8.484c-6.565-2.516-14.411,2.46-14.076,10.073
		c0.185,4.193,0.101,16.593,0.101,16.593C361.805,92.229,352.073,97.67,346.734,104.261z M366.975,109.401
		c4.505-0.778,6.886,5.404,7.229,10.121c0.46,6.327-1.711,13.59-5.622,14.296c-5.352,0.967-7.906-7.091-7.551-13.492
		C361.28,115.822,363.021,110.085,366.975,109.401z M203.145,109.127c3.616-6.314-1.496-12.958-5.484-14.504
		c-1.048-0.406-3.01-0.853-4.98-0.642c-5.305,0.565-7.693,4.72-9.799,8.514c-2.032,3.661-7.39,13.012-7.39,13.012s0-7.967,0-11.887
		s-3.36-9.376-10.727-9.403c-5.86-0.021-9.996,5.197-9.996,10.367c0,6.064,0,13.512,0,20.883c0,7.536,0,21.043,0,21.043h20.722
		v-16.385l10.924,16.385h16.16c4.413,0,4.863-3.803,3.122-6.468c-3.175-4.856-10.929-16.343-10.929-16.343
		S199.529,115.441,203.145,109.127z M134.529,96.39c-10.873-4.56-22.85-0.604-29.236,5.782c-4.396,4.396-7.604,10.293-8.032,17.189
		c-0.601,9.671,2.695,16.099,7.871,21.365c4.142,4.214,9.645,7.5,16.546,8.032c6.722,0.518,11.784-0.998,16.064-3.374
		c5.308-2.946,9.21-7.427,11.566-12.851c1.038-2.389,1.989-4.932,2.249-8.354h-20.722c-0.479,4.394-2.402,9.801-6.425,9.799
		c-4.082-0.002-6.303-6.124-6.586-11.244c-0.219-3.96,0.79-8.362,2.25-10.603c0.841-1.292,2.526-2.893,4.337-2.893
		c2.237,0,3.723,1.882,4.659,3.535c1.069,1.89,1.532,3.887,1.767,6.264h20.722C150.211,107.944,143.677,100.226,134.529,96.39z
		 M250.19,102.333c-4.498-4.631-11.572-8.628-20.883-8.032c-11.834,0.757-19.924,8.334-23.454,17.027
		c-2.097,5.165-2.7,11.389-1.285,17.028c1.52,6.057,5.49,11.303,9.638,14.618c3.66,2.925,9.083,5.401,14.779,5.783
		c6.093,0.407,10.349-0.928,14.458-3.053c7.434-3.846,11.267-8.828,13.012-18.474c-6.104,0-12.208,0-18.313,0
		c-1.758,2.757-3.471,6.67-7.389,6.426c-3.999-0.249-5.518-5.677-6.104-9.316c10.709,0,21.418,0,32.128,0
		C257.677,114.577,255.042,107.331,250.19,102.333z M237.017,116.63h-12.048c0.431-4.438,4.831-10.151,8.996-6.425
		C235.47,111.551,236.537,114.146,237.017,116.63z M298.863,97.032c-2.898,1.395-5.408,3.159-7.39,5.14
		c-4.157,4.158-7.51,9.702-8.032,16.867c-0.77,10.579,3.524,17.781,8.835,22.651c5.073,4.65,11.815,7.28,19.438,7.068
		c7.594-0.212,13.694-3.494,18.313-8.193c4.231-4.307,7.846-10.65,7.871-18.795c0.028-8.748-3.833-15.52-8.354-19.758
		c-4.591-4.306-11.585-8.214-20.562-7.55C304.788,94.772,301.802,95.618,298.863,97.032z M309.787,109.401
		c5.561-1.127,7.815,7.619,7.389,13.976c-0.33,4.918-2.572,9.884-5.622,10.441c-0.543,0.101-1.438,0.053-1.767,0
		c-4.064-0.65-6.18-7.898-5.783-13.814c0.275-4.114,1.725-7.955,3.694-9.639C308.139,109.989,308.983,109.564,309.787,109.401z
		 M436.21,96.872c-3.677-1.75-8.14-2.917-13.172-2.57c-7.594,0.523-12.946,3.628-17.35,8.032
		c-5.248,5.248-8.797,11.907-8.032,21.847c0.829,10.771,8.341,19.114,16.867,22.649c5.341,2.215,11.527,2.542,17.027,1.125
		c10.258-2.643,17.032-9.668,18.634-20.723h-18.313c-1.676,2.793-3.328,6.632-7.229,6.426c-4.151-0.22-5.585-5.46-6.104-9.316
		h32.128C451.806,110.026,445.563,101.325,436.21,96.872z M430.816,116.791h-11.955c0.725-3.823,2.73-8.429,7.249-7.468
		C428.78,109.891,430.309,113.808,430.816,116.791z M460.627,103.458c-3.922,4.425-7.576,11.047-6.907,20.24
		c0.572,7.865,4.272,13.793,8.995,18.152c4.788,4.418,12.01,7.406,20.24,6.908c7.981-0.484,13.74-4.291,18.153-8.996
		c4.302-4.587,7.671-11.385,7.067-20.081c-0.266-3.826-1.443-7.308-3.052-10.441c-4.296-8.367-13.155-15.785-26.023-14.778
		C470.892,95.104,464.666,98.901,460.627,103.458z M480.226,109.401c4.424-0.748,6.78,5.176,7.229,9.478
		c0.655,6.299-1.492,14.193-5.622,14.939c-2.639,0.477-4.571-1.486-5.623-3.373c-3.22-5.773-2.027-16.771,1.768-20.08
		C478.499,109.909,479.371,109.545,480.226,109.401z M565.203,119.039c0-6.465-4.456-13.772-8.996-17.669
		c-4.935-4.236-11.09-7.577-19.759-7.068c-8.798,0.517-16.105,5.38-20.08,10.602c-3.586,4.713-5.621,10.789-5.621,17.992v23.613
		h20.723v-26.344c0-4.52,2.68-8.982,6.746-8.836c4.13,0.148,6.425,4.104,6.425,9.317v25.862h20.563
		C565.203,146.509,565.203,125.506,565.203,119.039z M94.209,117.272c0-3.404,0.025-6.868-0.38-9.799
		c-0.427-3.093-2.151-5.23-4.118-7.229c-1.381-1.404-3.682-3.056-3.694-5.141c-0.012-1.853,2.016-3.574,3.373-4.98
		c1.452-1.503,3.271-2.918,4.177-4.337c3.084-4.83,1.869-10.957-1.606-14.618c-2.492-1.72-4.773-3.545-8.996-3.212
		c-5.816,0.458-10.884,5.37-10.602,12.048c0.213,5.021,3.068,7.097,5.783,9.798c1.482,1.474,3.597,3.567,3.534,5.462
		c-0.063,1.915-2.136,3.537-3.534,4.979c-1.521,1.571-2.767,3.071-3.476,4.659c-1.313,2.938-1.183,7.844-1.183,12.208
		c0,9.698,0,20.217,0,29.396c6.907,0,13.815,0,20.723,0C94.209,137.033,94.209,126.743,94.209,117.272z M569.819,139.679h6.375
		v0.872h-2.66v5.985h-1.098v-5.985h-2.617V139.679z M583.295,139.688h1.022v6.849h-1.098v-5.328l-2.347,2.647h-0.202l-2.374-2.647
		v5.328h-1.092v-6.849h1.034l2.536,2.813L583.295,139.688z"/>
</g>
<g id="Layer_4" display="none">
	<g display="inline">
		<polygon fill-rule="evenodd" clip-rule="evenodd" fill="#AFAFAF" points="418.699,78.437 430.782,78.437 430.782,140.321 
			483.146,140.321 475.456,152.406 418.699,152.406 418.699,78.437 		"/>
		<path fill-rule="evenodd" clip-rule="evenodd" fill="#AFAFAF" d="M323.856,152.406l-44.672-70.49
			c-2.747-4.579-10.069-4.579-13.183,0.183l-44.309,70.308h14.648l13.365-21.239h28.563l7.506-12.086h-28.562l15.563-24.349
			l36.435,57.674H323.856L323.856,152.406z"/>
		<path fill-rule="evenodd" clip-rule="evenodd" fill="#AFAFAF" d="M351.045,78.458c-20.413,0-33.848,16.551-33.848,36.965
			c0,20.409,13.435,36.957,33.848,36.957l49.629-0.059l7.771-11.981h-57.03c-13.767,0-21.812-11.159-21.812-24.917
			c0-13.765,8.045-24.923,21.812-24.923h50.808l7.493-12.074L351.045,78.458L351.045,78.458z"/>
		<path fill-rule="evenodd" clip-rule="evenodd" fill="#AFAFAF" d="M41.258,90.5h52.363c13.763,0,21.811,11.159,21.811,24.923
			c0,13.758-8.047,24.917-21.811,24.917H41.258c-13.764,0-21.81-11.159-21.81-24.917C19.449,101.658,27.494,90.5,41.258,90.5
			L41.258,90.5z M41.258,78.458c-20.413,0-33.85,16.551-33.85,36.965c0,20.409,13.438,36.957,33.85,36.957h52.363
			c20.415,0,33.849-16.548,33.849-36.957c0-20.415-13.435-36.965-33.849-36.965H41.258L41.258,78.458z"/>
		<path fill-rule="evenodd" clip-rule="evenodd" fill="#AFAFAF" d="M496.056,121.276c1.97,10.942,9.489,19.063,21.239,19.063h57.03
			l-7.771,11.981l-49.625,0.059c-20.417,0-33.852-16.548-33.852-36.957c0-20.415,13.435-36.965,33.852-36.965l58.667-0.032
			L568.103,90.5h-50.808c-11.584,0-19.144,7.988-21.239,18.697h71.682l-7.692,12.08H496.056L496.056,121.276z"/>
		<path fill-rule="evenodd" clip-rule="evenodd" fill="#AFAFAF" d="M195.786,122.354c12.119,0,21.946-9.828,21.946-21.946
			c0-12.119-9.827-21.945-21.946-21.945l-61.609-0.026v73.97h13.549V90.504h48.06c5.471,0,9.904,4.435,9.904,9.904
			c0,5.469-4.434,9.904-9.904,9.904h-38.541l43.477,42.009h17.492L187.09,122.38L195.786,122.354L195.786,122.354z"/>
	</g>
</g>
<g id="Layer_5">
	<path fill="#AFAFAF" d="M79.292,56.432L45.902,77.746l33.391,21.313l-33.391,21.313l-33.39-21.49l33.39-21.313l-33.39-21.136
		l33.39-21.313L79.292,56.432z M45.725,127.122l33.39-21.313l33.391,21.313l-33.391,21.313L45.725,127.122z M79.292,98.882
		l33.39-21.313l-33.39-21.136l33.213-21.313l33.39,21.313l-33.39,21.313l33.39,21.313l-33.39,21.313L79.292,98.882z"/>
	<path fill="#AFAFAF" d="M172.005,56.432h26.997c17.229,0,31.438,9.946,31.438,32.681v4.794c0,22.912-13.321,33.215-30.905,33.215
		h-27.53V56.432z M187.102,69.221v44.935h11.544c9.769,0,16.34-6.393,16.34-20.602v-3.731c0-14.209-6.927-20.602-16.873-20.602
		H187.102z M238.432,69.93h12.077l1.953,13.321c2.309-9.058,8.171-13.854,18.828-13.854h3.729v15.275h-6.216
		c-12.255,0-15.273,4.262-15.273,16.339V127.3h-14.92V69.93H238.432z M278.039,99.77v-1.599c0-19.182,12.254-29.662,28.95-29.662
		c17.05,0,28.95,10.48,28.95,29.662v1.599c0,18.826-11.545,28.952-28.95,28.952C288.517,128.541,278.039,118.596,278.039,99.77z
		 M320.665,99.593v-1.422c0-10.657-5.328-17.05-13.854-17.05c-8.348,0-13.855,5.861-13.855,17.05v1.422
		c0,10.3,5.329,16.162,13.855,16.162C315.337,115.578,320.665,109.893,320.665,99.593z M343.754,69.93h12.433l1.421,10.835
		c3.02-7.283,9.413-12.256,18.826-12.256c14.564,0,24.156,10.48,24.156,29.838v1.599c0,18.826-10.657,28.775-24.156,28.775
		c-9.058,0-15.274-4.087-18.294-10.656v28.948h-14.564L343.754,69.93L343.754,69.93z M385.492,99.593v-1.245
		c0-11.366-5.86-17.05-13.676-17.05c-8.349,0-13.854,6.393-13.854,17.05v1.068c0,10.122,5.328,16.516,13.677,16.516
		C380.164,115.755,385.492,110.25,385.492,99.593z M422.612,116.643l-1.242,10.479h-12.788V50.749h14.564v29.306
		c3.196-7.46,9.59-11.545,18.648-11.545c13.675,0.179,23.799,9.592,23.799,28.596v1.776c0,19.003-9.59,29.84-24.154,29.84
		C431.848,128.541,425.632,124.101,422.612,116.643z M450.32,98.882v-1.422c0-10.478-5.684-16.339-13.677-16.339
		c-8.169,0-13.853,6.57-13.853,16.519v1.242c0,10.656,5.505,16.873,13.676,16.873C445.169,115.755,450.32,110.25,450.32,98.882z
		 M471.989,99.77v-1.599c0-19.182,12.254-29.662,28.949-29.662c17.05,0,28.95,10.48,28.95,29.662v1.599
		c0,18.826-11.722,28.952-28.95,28.952C482.467,128.541,471.989,118.596,471.989,99.77z M514.792,99.593v-1.422
		c0-10.657-5.328-17.05-13.854-17.05c-8.348,0-13.853,5.861-13.853,17.05v1.422c0,10.3,5.328,16.162,13.853,16.162
		C509.464,115.578,514.792,109.893,514.792,99.593z M549.426,97.459L529.356,69.93h17.227l11.545,17.228l11.724-17.228h17.05
		l-20.426,27.353l21.492,29.839h-16.873l-13.144-19.006l-12.788,19.006H527.58L549.426,97.459z"/>
</g>
</svg>
