<?xml version="1.0" encoding="utf-8"?>
<!-- Generator: Adobe Illustrator 16.0.0, SVG Export Plug-In . SVG Version: 6.00 Build 0)  -->
<!DOCTYPE svg PUBLIC "-//W3C//DTD SVG 1.1//EN" "http://www.w3.org/Graphics/SVG/1.1/DTD/svg11.dtd">
<svg version="1.1" xmlns="http://www.w3.org/2000/svg" xmlns:xlink="http://www.w3.org/1999/xlink" x="0px" y="0px" width="500px"
	 height="371px" viewBox="0 0 500 371" enable-background="new 0 0 500 371" xml:space="preserve">
<g id="Background">
</g>
<g id="Objects">
	<ellipse opacity="0.17" fill="#8982BC" cx="142.158" cy="362.233" rx="24.845" ry="2.337"/>
	<ellipse opacity="0.17" fill="#8982BC" cx="88.914" cy="317.823" rx="24.845" ry="2.337"/>
	<ellipse opacity="0.17" fill="#8982BC" cx="400.864" cy="321.825" rx="30.79" ry="2.337"/>
	<ellipse opacity="0.17" fill="#8982BC" cx="218.278" cy="317.003" rx="21.788" ry="2.044"/>
	<g>
		<polygon fill="#F0EFF9" points="116.045,58.375 116.045,312.959 386.541,312.959 386.541,66.799 		"/>
		<polygon opacity="0.18" fill="#8982BC" points="188.425,247.674 184.378,316.71 320.195,314.544 		"/>
		<linearGradient id="SVGID_1_" gradientUnits="userSpaceOnUse" x1="188.4253" y1="278.4971" x2="320.1953" y2="278.4971">
			<stop  offset="0" style="stop-color:#094C7E"/>
			<stop  offset="0.0282" style="stop-color:#0C4E81"/>
			<stop  offset="0.4516" style="stop-color:#2E6EA7"/>
			<stop  offset="0.7903" style="stop-color:#4382BF"/>
			<stop  offset="1" style="stop-color:#4B89C8"/>
		</linearGradient>
		<polygon fill="url(#SVGID_1_)" points="190.224,316.473 188.425,247.674 317.946,240.521 320.195,314.544 		"/>
		<polygon opacity="0.18" fill="#8982BC" points="234.883,149.065 236.405,213.285 370.095,212.212 363.913,137.124 		"/>
		<polygon fill="#EFF3FB" points="114.733,75.219 386.541,77.137 386.541,66.109 114.733,59.839 		"/>
		<linearGradient id="SVGID_2_" gradientUnits="userSpaceOnUse" x1="114.7329" y1="86.3945" x2="386.541" y2="86.3945">
			<stop  offset="0" style="stop-color:#094C7E"/>
			<stop  offset="0.0282" style="stop-color:#0C4E81"/>
			<stop  offset="0.4516" style="stop-color:#2E6EA7"/>
			<stop  offset="0.7903" style="stop-color:#4382BF"/>
			<stop  offset="1" style="stop-color:#4B89C8"/>
		</linearGradient>
		<polygon fill="url(#SVGID_2_)" points="114.733,75.219 114.733,97.57 386.541,97.57 386.541,77.137 		"/>
		<circle fill="#FFFFFF" cx="141.252" cy="86.395" r="7.912"/>
		<polyline fill="#FFFFFF" points="158.947,83.697 158.947,86.395 158.947,89.092 198.513,89.092 198.513,83.697 		"/>
		<polygon fill="#FFFFFF" points="220.592,79.957 220.592,94.306 320.858,94.306 320.858,81.109 		"/>
		<g>
			<circle fill="#FC846D" cx="123.938" cy="68.488" r="1.651"/>
			<circle fill="#F9D452" cx="131.75" cy="68.488" r="1.651"/>
			<circle fill="#57BE8B" cx="139.602" cy="68.488" r="1.651"/>
		</g>
		<linearGradient id="SVGID_3_" gradientUnits="userSpaceOnUse" x1="137.7905" y1="138.0791" x2="141.4131" y2="138.0791">
			<stop  offset="0" style="stop-color:#094C7E"/>
			<stop  offset="0.0282" style="stop-color:#0C4E81"/>
			<stop  offset="0.4516" style="stop-color:#2E6EA7"/>
			<stop  offset="0.7903" style="stop-color:#4382BF"/>
			<stop  offset="1" style="stop-color:#4B89C8"/>
		</linearGradient>
		<rect x="137.791" y="115.275" fill="url(#SVGID_3_)" width="3.623" height="45.607"/>
		<linearGradient id="SVGID_4_" gradientUnits="userSpaceOnUse" x1="149.1641" y1="120.2373" x2="199.126" y2="120.2373">
			<stop  offset="0" style="stop-color:#094C7E"/>
			<stop  offset="0.0282" style="stop-color:#0C4E81"/>
			<stop  offset="0.4516" style="stop-color:#2E6EA7"/>
			<stop  offset="0.7903" style="stop-color:#4382BF"/>
			<stop  offset="1" style="stop-color:#4B89C8"/>
		</linearGradient>
		<polygon fill="url(#SVGID_4_)" points="149.164,118.58 149.164,122.409 198.513,122.409 199.126,118.065 		"/>
		<linearGradient id="SVGID_5_" gradientUnits="userSpaceOnUse" x1="232.5391" y1="115.2061" x2="371.96" y2="115.2061">
			<stop  offset="0" style="stop-color:#094C7E"/>
			<stop  offset="0.0282" style="stop-color:#0C4E81"/>
			<stop  offset="0.4516" style="stop-color:#2E6EA7"/>
			<stop  offset="0.7903" style="stop-color:#4382BF"/>
			<stop  offset="1" style="stop-color:#4B89C8"/>
		</linearGradient>
		<polygon fill="url(#SVGID_5_)" points="232.539,113.548 232.539,117.378 370.249,117.378 371.96,113.035 		"/>
		<linearGradient id="SVGID_6_" gradientUnits="userSpaceOnUse" x1="232.5391" y1="218.6875" x2="371.96" y2="218.6875">
			<stop  offset="0" style="stop-color:#094C7E"/>
			<stop  offset="0.0282" style="stop-color:#0C4E81"/>
			<stop  offset="0.4516" style="stop-color:#2E6EA7"/>
			<stop  offset="0.7903" style="stop-color:#4382BF"/>
			<stop  offset="1" style="stop-color:#4B89C8"/>
		</linearGradient>
		<polygon fill="url(#SVGID_6_)" points="232.539,217.03 232.539,220.859 370.249,220.859 371.96,216.516 		"/>
		<linearGradient id="SVGID_7_" gradientUnits="userSpaceOnUse" x1="232.5391" y1="128.2959" x2="285.5869" y2="128.2959">
			<stop  offset="0" style="stop-color:#094C7E"/>
			<stop  offset="0.0282" style="stop-color:#0C4E81"/>
			<stop  offset="0.4516" style="stop-color:#2E6EA7"/>
			<stop  offset="0.7903" style="stop-color:#4382BF"/>
			<stop  offset="1" style="stop-color:#4B89C8"/>
		</linearGradient>
		<polygon fill="url(#SVGID_7_)" points="232.539,126.638 232.539,130.467 284.937,130.467 285.587,126.124 		"/>
		<linearGradient id="SVGID_8_" gradientUnits="userSpaceOnUse" x1="232.5391" y1="231.9473" x2="285.5869" y2="231.9473">
			<stop  offset="0" style="stop-color:#094C7E"/>
			<stop  offset="0.0282" style="stop-color:#0C4E81"/>
			<stop  offset="0.4516" style="stop-color:#2E6EA7"/>
			<stop  offset="0.7903" style="stop-color:#4382BF"/>
			<stop  offset="1" style="stop-color:#4B89C8"/>
		</linearGradient>
		<polygon fill="url(#SVGID_8_)" points="232.539,230.289 232.539,234.119 284.937,234.119 285.587,229.775 		"/>
		<linearGradient id="SVGID_9_" gradientUnits="userSpaceOnUse" x1="149.5928" y1="132.3818" x2="199.126" y2="132.3818">
			<stop  offset="0" style="stop-color:#094C7E"/>
			<stop  offset="0.0282" style="stop-color:#0C4E81"/>
			<stop  offset="0.4516" style="stop-color:#2E6EA7"/>
			<stop  offset="0.7903" style="stop-color:#4382BF"/>
			<stop  offset="1" style="stop-color:#4B89C8"/>
		</linearGradient>
		<polygon fill="url(#SVGID_9_)" points="149.593,130.467 149.593,134.297 198.941,134.297 199.126,130.81 		"/>
		<linearGradient id="SVGID_10_" gradientUnits="userSpaceOnUse" x1="149.3784" y1="145.002" x2="198.9121" y2="145.002">
			<stop  offset="0" style="stop-color:#094C7E"/>
			<stop  offset="0.0282" style="stop-color:#0C4E81"/>
			<stop  offset="0.4516" style="stop-color:#2E6EA7"/>
			<stop  offset="0.7903" style="stop-color:#4382BF"/>
			<stop  offset="1" style="stop-color:#4B89C8"/>
		</linearGradient>
		<polygon fill="url(#SVGID_10_)" points="149.378,143.088 149.378,146.917 198.727,146.917 198.912,143.431 		"/>
		<linearGradient id="SVGID_11_" gradientUnits="userSpaceOnUse" x1="149.3784" y1="158.9688" x2="198.9121" y2="158.9688">
			<stop  offset="0" style="stop-color:#094C7E"/>
			<stop  offset="0.0282" style="stop-color:#0C4E81"/>
			<stop  offset="0.4516" style="stop-color:#2E6EA7"/>
			<stop  offset="0.7903" style="stop-color:#4382BF"/>
			<stop  offset="1" style="stop-color:#4B89C8"/>
		</linearGradient>
		<polygon fill="url(#SVGID_11_)" points="149.378,157.054 149.378,160.883 198.727,160.883 198.912,157.396 		"/>
		<linearGradient id="SVGID_12_" gradientUnits="userSpaceOnUse" x1="234.8828" y1="173.4922" x2="369.6152" y2="173.4922">
			<stop  offset="0" style="stop-color:#094C7E"/>
			<stop  offset="0.0282" style="stop-color:#0C4E81"/>
			<stop  offset="0.4516" style="stop-color:#2E6EA7"/>
			<stop  offset="0.7903" style="stop-color:#4382BF"/>
			<stop  offset="1" style="stop-color:#4B89C8"/>
		</linearGradient>
		<polygon fill="url(#SVGID_12_)" points="234.883,145.483 240.478,213.441 369.615,202.81 363.913,133.542 		"/>
	</g>
	<g opacity="0.18">
		<path fill="#8982BC" d="M350.912,204.673c-1.083-2.198-1.844-4.554-2.251-6.97c-0.064-0.387-0.12-0.786-0.025-1.167
			c0.226-0.898,1.271-1.406,2.189-1.285c0.919,0.121,1.704,0.723,2.335,1.4s1.158,1.452,1.839,2.081
			c0.464,0.428,0.991,0.781,1.534,1.104c1.234,0.735,2.557,1.324,3.929,1.75c0.865,0.269,1.796,0.498,2.428,1.146
			c-0.916,0.428-1.973,0.379-2.984,0.362c-3.12-0.053-6.246,0.279-9.286,0.986c0.24-0.211,0.596-0.28,0.898-0.177"/>
	</g>
	<g opacity="0.18">
		<path fill="#8982BC" d="M369.165,188.298c-2.511-1.251-3.212-4.421-3.866-7.148c-1.203-5.014-3.196-9.836-5.885-14.234
			c-0.476-0.779-0.983-1.569-1.16-2.466c-0.35-1.763,0.729-3.605,2.286-4.504c1.557-0.899,3.478-0.978,5.237-0.609L369.165,188.298z
			"/>
	</g>
	<g>
		<g>
			<polygon fill="#DDD6FF" points="380.895,294.745 382.479,297.298 384.467,296.353 382.681,293.563 			"/>
			<path fill="#3F327A" d="M390.015,303.662c0,0-8.86-2.092-10.266-1.021s10.35,2.627,10.35,2.627L390.015,303.662z"/>
			<path fill="#F7D3A9" d="M356.811,202.621c0,0,0.067-4.457-0.194-4.536c-0.76-0.229-0.933,2.067-0.933,2.067
				s-1.365-4.415-2.013-4.212c-0.398,0.124,0.134,2.659,0.134,2.659s-1.138-2.044-1.701-1.915c-0.549,0.126,0.606,2.857,0.606,2.857
				s-0.986-1.319-1.497-1.155c-0.351,0.113,3.193,6.141,3.193,6.141L356.811,202.621z"/>
			<linearGradient id="SVGID_13_" gradientUnits="userSpaceOnUse" x1="366.5732" y1="267.0107" x2="402.3613" y2="267.0107">
				<stop  offset="0" style="stop-color:#094C7E"/>
				<stop  offset="0.0282" style="stop-color:#0C4E81"/>
				<stop  offset="0.4516" style="stop-color:#2E6EA7"/>
				<stop  offset="0.7903" style="stop-color:#4382BF"/>
				<stop  offset="1" style="stop-color:#4B89C8"/>
			</linearGradient>
			<path fill="url(#SVGID_13_)" d="M375.61,236.885c0,0-14.12,17.093-7.061,37.158c7.061,20.065,11.839,22.194,11.839,22.194
				l4.09-2.139c0,0-7.864-18.798-8.204-25.645c-0.309-6.227,10.547-20.793,10.547-20.793l-2.2,55.338l5.208,0.667
				c0,0,13.907-61.95,12.421-66.781C400.764,232.055,394.561,224.994,375.61,236.885z"/>
			<path fill="#FAFAFA" d="M372.548,213.476l3.063,23.409l25.254-2.954l-10.234-36.563l-7.591,1.218l-5.406,0.631
				c-3.072,0.359-4.993,0.915-7.219,3.063l-8.81,10.069l-4.367-10.496l-3.845,1.922c0,0,3.146,19.11,8.098,17.151
				C364.874,219.589,372.548,213.476,372.548,213.476z"/>
			<path fill="#FAFAFA" d="M368.179,168.143c0,0,5.573,14.12,6.316,16.35s16.135,12.876,16.135,12.876l-7.591,3.474l-14.86-13.772
				l-3.345-18.927H368.179z"/>
			<g>
				<path fill="#F7D3A9" d="M374.025,183.02l-2.145,7.374c-0.479,1.643,0.471,3.359,2.115,3.829l0.971,0.277v5.271h4.479
					c1.58,0,2.86-1.281,2.86-2.86v-12.009L374.025,183.02z"/>
				<path fill="#353E70" d="M378.278,194.957c-0.824-0.602-2.044-1.74-2.012-3.193c0,0,3.13-0.089,2.292-2.261
					c-0.52-1.349-2.31-0.278-2.31-0.278s0.715-2.704,0.275-3.559c0,0-5.374-0.007-4.505-3.174c0,0,1.494-1.356,4.876-1.547
					c3.382-0.191,5.244,5.521,5.244,5.521l-2.85,8.17C379.145,195.055,378.637,195.219,378.278,194.957z"/>
			</g>
			<path fill="#F7D3A9" d="M364.94,168.143c0,0-2.821-3.45-2.665-3.675c0.453-0.651,2.016,1.04,2.016,1.04s-1.674-4.307-1.041-4.551
				c0.389-0.149,1.547,2.167,1.547,2.167s-0.378-2.309,0.144-2.557c0.509-0.242,1.301,2.615,1.301,2.615s-0.047-1.647,0.455-1.835
				c0.345-0.13,1.313,6.795,1.313,6.795H364.94z"/>
			<g opacity="0.85">
				<path fill="#FAFAFA" d="M378.248,209.398c0.02,0.052-0.349,0.241-0.881,0.65c-0.535,0.41-1.286,0.98-2.131,1.578
					c-1.689,1.201-3.109,2.104-3.174,2.017c-0.063-0.088,1.256-1.134,2.946-2.336c0.848-0.6,1.618-1.131,2.203-1.489
					C377.803,209.456,378.231,209.348,378.248,209.398z"/>
			</g>
			<g opacity="0.85">
				<path fill="#FAFAFA" d="M382.376,195.113c0.005-0.011,0.048-0.012,0.112,0.036c0.064,0.047,0.129,0.155,0.153,0.296
					c0.042,0.287,0.007,0.658-0.068,1.135c-0.083,0.469-0.238,1.033-0.578,1.59c-0.171,0.277-0.392,0.548-0.67,0.777
					c-0.278,0.231-0.615,0.409-0.966,0.531c-1.405,0.44-2.713,0.539-3.659,0.542c-0.946-0.005-1.522-0.114-1.519-0.163
					c0.004-0.06,0.584-0.049,1.509-0.114c0.918-0.07,2.213-0.219,3.537-0.635c0.651-0.214,1.142-0.639,1.463-1.133
					c0.322-0.491,0.499-1.013,0.611-1.454c0.106-0.439,0.182-0.826,0.188-1.061C382.496,195.214,382.362,195.139,382.376,195.113z"
					/>
			</g>
			<g opacity="0.85">
				<path fill="#FAFAFA" d="M361.328,215.66c0.037,0,0.072,0.104,0.104,0.29l-0.201,0.004c-0.067-0.345-0.117-0.997-0.079-1.741
					c0.053-1.127,0.281-2.018,0.386-2.001c0.109,0.018,0.058,0.917,0.006,2.021c-0.036,0.73-0.064,1.37-0.111,1.716l-0.201,0.004
					C361.258,215.765,361.292,215.661,361.328,215.66z"/>
			</g>
			<g opacity="0.85">
				
					<ellipse transform="matrix(0.191 0.9816 -0.9816 0.191 502.1493 -182.6761)" fill="#FAFAFA" cx="361.893" cy="213.285" rx="1.583" ry="0.197"/>
			</g>
			<g opacity="0.85">
				
					<ellipse transform="matrix(0.9341 -0.357 0.357 0.9341 -49.2947 140.3329)" fill="#FAFAFA" cx="355.435" cy="203.678" rx="2.273" ry="0.197"/>
			</g>
			<g opacity="0.85">
				<path fill="#FAFAFA" d="M399.717,231.663c0.012,0.019-0.268,0.24-0.838,0.532c-0.568,0.298-1.437,0.637-2.537,0.939
					c-2.2,0.59-5.261,1.296-8.673,1.931c-1.706,0.318-3.338,0.584-4.825,0.804c-1.487,0.212-2.828,0.411-3.973,0.476
					c-1.144,0.07-2.079-0.024-2.704-0.166c-0.627-0.142-0.95-0.295-0.942-0.314c0.01-0.031,0.347,0.071,0.97,0.164
					c0.622,0.093,1.534,0.145,2.657,0.039c1.121-0.098,2.455-0.324,3.938-0.556c1.48-0.239,3.106-0.515,4.809-0.832
					c3.401-0.633,6.469-1.296,8.674-1.813c1.099-0.266,1.964-0.559,2.543-0.81C399.396,231.812,399.7,231.636,399.717,231.663z"/>
			</g>
			<path opacity="0.25" fill="#8982BC" d="M378.035,209.224c0,0-1.51,10.915-4.579,12.648l-1.042-7.965L378.035,209.224z"/>
			<path fill="#353E70" d="M373.181,184.95c-0.528-0.467-1.013-0.871-1.257-1.532c-0.243-0.662,0.076-2.415,0.675-2.788
				c0.697-0.435,1.587-0.049,2.4,0.066c1.22,0.173,2.429-0.303,3.653-0.436s2.712,0.269,3.089,1.441
				c0.077,0.241,0.141,0.544,0.384,0.614c0.104,0.029,0.215,0.005,0.322-0.006c0.95-0.09,1.615,1.023,1.561,1.976
				c-0.054,0.952-0.551,1.819-0.771,2.747c-0.482,2.032,0.365,4.304-0.524,6.192c-0.701,1.487-2.911,2.802-4.435,1.731l1.947-8.602
				L373.181,184.95z"/>
			<path fill="#3F327A" d="M384.467,296.353c0,0-8.324,3.688-8.797,5.39s9.834-4.16,9.834-4.16L384.467,296.353z"/>
			<g>
				<path fill="#2C2656" d="M376.199,266.038c0.054,0.092-1.025,0.829-2.446,1.583c-1.42,0.756-2.635,1.238-2.681,1.142
					c-0.048-0.099,1.085-0.737,2.496-1.488C374.98,266.524,376.144,265.943,376.199,266.038z"/>
			</g>
			<g>
				<path fill="#2C2656" d="M376.093,268.457c0.033,0.108-0.812,0.447-1.77,1.006c-0.963,0.553-1.678,1.115-1.755,1.032
					c-0.073-0.072,0.551-0.792,1.559-1.371C375.131,268.539,376.066,268.357,376.093,268.457z"/>
			</g>
			<g>
				<path fill="#2C2656" d="M394.511,273.123c-0.022,0.104-1.359-0.106-2.944-0.61c-1.587-0.501-2.801-1.098-2.76-1.195
					c0.042-0.103,1.31,0.326,2.878,0.821C393.252,272.637,394.535,273.015,394.511,273.123z"/>
			</g>
			<g>
				<path fill="#2C2656" d="M394.895,272.357c-0.031,0.101-1.336-0.217-2.853-0.868c-1.519-0.646-2.648-1.371-2.598-1.463
					c0.054-0.098,1.254,0.464,2.752,1.103C393.692,271.771,394.928,272.251,394.895,272.357z"/>
			</g>
			<g>
				<g>
					
						<ellipse transform="matrix(-0.5307 -0.8475 0.8475 -0.5307 333.1699 775.4229)" fill="#2C2656" cx="381.254" cy="295.476" rx="0.66" ry="0.196"/>
				</g>
				<g>
					
						<ellipse transform="matrix(-0.4798 -0.8774 0.8774 -0.4798 304.995 763.7203)" fill="#2C2656" cx="378.904" cy="291.444" rx="1.336" ry="0.196"/>
				</g>
				<g>
					
						<ellipse transform="matrix(-0.4195 -0.9077 0.9077 -0.4195 274.2257 748.7017)" fill="#2C2656" cx="376.5" cy="286.671" rx="1.336" ry="0.197"/>
				</g>
				<g>
					
						<ellipse transform="matrix(-0.3577 -0.9338 0.9338 -0.3577 245.2375 732.176)" fill="#2C2656" cx="374.422" cy="281.748" rx="1.336" ry="0.197"/>
				</g>
				<g>
					<path fill="#2C2656" d="M372.288,275.419c0.102-0.029,0.36,0.518,0.579,1.22c0.217,0.703,0.31,1.301,0.206,1.335
						c-0.103,0.033-0.363-0.512-0.582-1.22C372.272,276.047,372.181,275.449,372.288,275.419z"/>
				</g>
				<g>
					<path fill="#2C2656" d="M371.041,270.222c0.106-0.019,0.317,0.549,0.471,1.267s0.191,1.321,0.087,1.348
						c-0.105,0.026-0.316-0.541-0.471-1.267C370.973,270.845,370.935,270.241,371.041,270.222z"/>
				</g>
				<g>
					<path fill="#2C2656" d="M370.485,264.911c0.108-0.002,0.235,0.589,0.283,1.32s-0.001,1.334-0.108,1.347
						c-0.107,0.012-0.234-0.579-0.283-1.321C370.328,265.516,370.377,264.913,370.485,264.911z"/>
				</g>
				<g>
					<path fill="#2C2656" d="M370.742,259.576c0.107,0.014,0.145,0.617,0.082,1.348c-0.063,0.731-0.201,1.319-0.31,1.315
						c-0.107-0.005-0.145-0.608-0.081-1.349C370.496,260.151,370.635,259.563,370.742,259.576z"/>
				</g>
				<g>
					<path fill="#2C2656" d="M371.753,254.331c0.104,0.028,0.057,0.631-0.106,1.347c-0.163,0.715-0.382,1.278-0.488,1.259
						s-0.06-0.623,0.105-1.347S371.648,254.303,371.753,254.331z"/>
				</g>
				<g>
					<path fill="#2C2656" d="M373.442,249.264c0.101,0.041-0.024,0.633-0.278,1.321s-0.544,1.22-0.646,1.186
						c-0.104-0.034,0.021-0.625,0.278-1.321S373.342,249.222,373.442,249.264z"/>
				</g>
				<g>
					<path fill="#2C2656" d="M375.74,244.439c0.095,0.053-0.101,0.625-0.436,1.278c-0.336,0.653-0.688,1.146-0.785,1.1
						c-0.099-0.046,0.097-0.618,0.436-1.278S375.646,244.387,375.74,244.439z"/>
				</g>
				<g>
					<path fill="#2C2656" d="M378.585,239.917c0.088,0.063-0.172,0.609-0.58,1.22c-0.409,0.61-0.815,1.058-0.907,1.001
						c-0.092-0.058,0.168-0.604,0.581-1.22C378.091,240.302,378.497,239.854,378.585,239.917z"/>
				</g>
				<g>
					
						<ellipse transform="matrix(0.6365 -0.7712 0.7712 0.6365 -44.662 379.7906)" fill="#2C2656" cx="380.615" cy="237.28" rx="0.66" ry="0.196"/>
				</g>
			</g>
		</g>
		<g>
			<g>
				<linearGradient id="SVGID_14_" gradientUnits="userSpaceOnUse" x1="402.2344" y1="285.5537" x2="416.9619" y2="285.5537">
					<stop  offset="0" style="stop-color:#094C7E"/>
					<stop  offset="0.0282" style="stop-color:#0C4E81"/>
					<stop  offset="0.4516" style="stop-color:#2E6EA7"/>
					<stop  offset="0.7903" style="stop-color:#4382BF"/>
					<stop  offset="1" style="stop-color:#4B89C8"/>
				</linearGradient>
				<path fill="url(#SVGID_14_)" d="M416.946,321.825c-0.266,0.054-3.771-16.144-7.829-36.172
					c-4.059-20.036-7.133-36.317-6.867-36.371c0.265-0.054,3.77,16.14,7.829,36.176
					C414.137,305.487,417.212,321.771,416.946,321.825z"/>
			</g>
			<g>
				<linearGradient id="SVGID_15_" gradientUnits="userSpaceOnUse" x1="414.2129" y1="285.5537" x2="428.9414" y2="285.5537">
					<stop  offset="0" style="stop-color:#094C7E"/>
					<stop  offset="0.0282" style="stop-color:#0C4E81"/>
					<stop  offset="0.4516" style="stop-color:#2E6EA7"/>
					<stop  offset="0.7903" style="stop-color:#4382BF"/>
					<stop  offset="1" style="stop-color:#4B89C8"/>
				</linearGradient>
				<path fill="url(#SVGID_15_)" d="M428.926,321.825c-0.267,0.054-3.771-16.144-7.83-36.172
					c-4.059-20.036-7.133-36.317-6.867-36.371s3.771,16.14,7.829,36.176C426.116,305.487,429.19,321.771,428.926,321.825z"/>
			</g>
			<linearGradient id="SVGID_16_" gradientUnits="userSpaceOnUse" x1="380.8945" y1="245.874" x2="416.9463" y2="245.874">
				<stop  offset="0" style="stop-color:#094C7E"/>
				<stop  offset="0.0282" style="stop-color:#0C4E81"/>
				<stop  offset="0.4516" style="stop-color:#2E6EA7"/>
				<stop  offset="0.7903" style="stop-color:#4382BF"/>
				<stop  offset="1" style="stop-color:#4B89C8"/>
			</linearGradient>
			<rect x="380.895" y="242.466" fill="url(#SVGID_16_)" width="36.052" height="6.816"/>
			<g>
				<g>
					<linearGradient id="SVGID_17_" gradientUnits="userSpaceOnUse" x1="383.9619" y1="283.8584" x2="397.1289" y2="283.8584">
						<stop  offset="0" style="stop-color:#094C7E"/>
						<stop  offset="0.0282" style="stop-color:#0C4E81"/>
						<stop  offset="0.4516" style="stop-color:#2E6EA7"/>
						<stop  offset="0.7903" style="stop-color:#4382BF"/>
						<stop  offset="1" style="stop-color:#4B89C8"/>
					</linearGradient>
					<path fill="url(#SVGID_17_)" d="M397.111,245.892c0.267,0.047-2.456,17.083-6.082,38.049
						c-3.627,20.973-6.782,37.931-7.05,37.885c-0.267-0.046,2.456-17.08,6.083-38.052
						C393.688,262.808,396.844,245.846,397.111,245.892z"/>
				</g>
				<g>
					<linearGradient id="SVGID_18_" gradientUnits="userSpaceOnUse" x1="374.3105" y1="283.8584" x2="387.4775" y2="283.8584">
						<stop  offset="0" style="stop-color:#094C7E"/>
						<stop  offset="0.0282" style="stop-color:#0C4E81"/>
						<stop  offset="0.4516" style="stop-color:#2E6EA7"/>
						<stop  offset="0.7903" style="stop-color:#4382BF"/>
						<stop  offset="1" style="stop-color:#4B89C8"/>
					</linearGradient>
					<path fill="url(#SVGID_18_)" d="M387.46,245.892c0.267,0.047-2.456,17.083-6.082,38.049
						c-3.627,20.973-6.782,37.931-7.05,37.885c-0.267-0.046,2.456-17.08,6.083-38.052
						C384.036,262.808,387.192,245.846,387.46,245.892z"/>
				</g>
			</g>
			<linearGradient id="SVGID_19_" gradientUnits="userSpaceOnUse" x1="408.3857" y1="280.9531" x2="420.9248" y2="280.9531">
				<stop  offset="0" style="stop-color:#094C7E"/>
				<stop  offset="0.0282" style="stop-color:#0C4E81"/>
				<stop  offset="0.4516" style="stop-color:#2E6EA7"/>
				<stop  offset="0.7903" style="stop-color:#4382BF"/>
				<stop  offset="1" style="stop-color:#4B89C8"/>
			</linearGradient>
			<polygon fill="url(#SVGID_19_)" points="408.386,279.569 420.364,279.569 420.925,282.336 408.946,282.336 			"/>
			<g>
				<linearGradient id="SVGID_20_" gradientUnits="userSpaceOnUse" x1="375.6533" y1="314.9668" x2="385.5049" y2="314.9668">
					<stop  offset="0" style="stop-color:#094C7E"/>
					<stop  offset="0.0282" style="stop-color:#0C4E81"/>
					<stop  offset="0.4516" style="stop-color:#2E6EA7"/>
					<stop  offset="0.7903" style="stop-color:#4382BF"/>
					<stop  offset="1" style="stop-color:#4B89C8"/>
				</linearGradient>
				<path fill="url(#SVGID_20_)" d="M385.504,314.25c0.039,0.269-2.135,0.807-4.854,1.202c-2.721,0.396-4.957,0.499-4.996,0.23
					c-0.039-0.268,2.134-0.806,4.854-1.201C383.229,314.085,385.465,313.981,385.504,314.25z"/>
			</g>
			<g>
				<linearGradient id="SVGID_21_" gradientUnits="userSpaceOnUse" x1="376.6787" y1="308.6602" x2="386.5303" y2="308.6602">
					<stop  offset="0" style="stop-color:#094C7E"/>
					<stop  offset="0.0282" style="stop-color:#0C4E81"/>
					<stop  offset="0.4516" style="stop-color:#2E6EA7"/>
					<stop  offset="0.7903" style="stop-color:#4382BF"/>
					<stop  offset="1" style="stop-color:#4B89C8"/>
				</linearGradient>
				<path fill="url(#SVGID_21_)" d="M386.529,307.944c0.039,0.269-2.135,0.807-4.854,1.202s-4.956,0.499-4.995,0.23
					c-0.039-0.268,2.134-0.806,4.854-1.202C384.253,307.779,386.49,307.676,386.529,307.944z"/>
			</g>
			<g>
				<linearGradient id="SVGID_22_" gradientUnits="userSpaceOnUse" x1="377.7549" y1="301.3359" x2="387.6064" y2="301.3359">
					<stop  offset="0" style="stop-color:#094C7E"/>
					<stop  offset="0.0282" style="stop-color:#0C4E81"/>
					<stop  offset="0.4516" style="stop-color:#2E6EA7"/>
					<stop  offset="0.7903" style="stop-color:#4382BF"/>
					<stop  offset="1" style="stop-color:#4B89C8"/>
				</linearGradient>
				<path fill="url(#SVGID_22_)" d="M387.605,300.619c0.039,0.268-2.135,0.807-4.854,1.202s-4.956,0.499-4.995,0.23
					c-0.039-0.268,2.134-0.806,4.854-1.202C385.33,300.454,387.566,300.351,387.605,300.619z"/>
			</g>
			<g>
				<linearGradient id="SVGID_23_" gradientUnits="userSpaceOnUse" x1="379.0537" y1="294.0098" x2="388.9053" y2="294.0098">
					<stop  offset="0" style="stop-color:#094C7E"/>
					<stop  offset="0.0282" style="stop-color:#0C4E81"/>
					<stop  offset="0.4516" style="stop-color:#2E6EA7"/>
					<stop  offset="0.7903" style="stop-color:#4382BF"/>
					<stop  offset="1" style="stop-color:#4B89C8"/>
				</linearGradient>
				<path fill="url(#SVGID_23_)" d="M388.904,293.294c0.039,0.269-2.134,0.807-4.854,1.202c-2.721,0.396-4.957,0.499-4.996,0.23
					c-0.039-0.268,2.135-0.806,4.854-1.201C386.629,293.129,388.865,293.025,388.904,293.294z"/>
			</g>
			<g>
				<linearGradient id="SVGID_24_" gradientUnits="userSpaceOnUse" x1="379.9395" y1="287.5059" x2="389.791" y2="287.5059">
					<stop  offset="0" style="stop-color:#094C7E"/>
					<stop  offset="0.0282" style="stop-color:#0C4E81"/>
					<stop  offset="0.4516" style="stop-color:#2E6EA7"/>
					<stop  offset="0.7903" style="stop-color:#4382BF"/>
					<stop  offset="1" style="stop-color:#4B89C8"/>
				</linearGradient>
				<path fill="url(#SVGID_24_)" d="M389.79,286.789c0.039,0.268-2.134,0.807-4.854,1.202c-2.721,0.396-4.957,0.499-4.996,0.23
					c-0.039-0.268,2.134-0.806,4.854-1.202C387.515,286.624,389.751,286.521,389.79,286.789z"/>
			</g>
			<g>
				<linearGradient id="SVGID_25_" gradientUnits="userSpaceOnUse" x1="381.6035" y1="280.9531" x2="391.4541" y2="280.9531">
					<stop  offset="0" style="stop-color:#094C7E"/>
					<stop  offset="0.0282" style="stop-color:#0C4E81"/>
					<stop  offset="0.4516" style="stop-color:#2E6EA7"/>
					<stop  offset="0.7903" style="stop-color:#4382BF"/>
					<stop  offset="1" style="stop-color:#4B89C8"/>
				</linearGradient>
				<path fill="url(#SVGID_25_)" d="M391.453,280.236c0.039,0.268-2.134,0.806-4.854,1.202c-2.721,0.396-4.956,0.499-4.995,0.23
					s2.134-0.807,4.854-1.202C389.178,280.071,391.415,279.968,391.453,280.236z"/>
			</g>
			<g>
				<linearGradient id="SVGID_26_" gradientUnits="userSpaceOnUse" x1="382.6797" y1="273.8398" x2="392.5313" y2="273.8398">
					<stop  offset="0" style="stop-color:#094C7E"/>
					<stop  offset="0.0282" style="stop-color:#0C4E81"/>
					<stop  offset="0.4516" style="stop-color:#2E6EA7"/>
					<stop  offset="0.7903" style="stop-color:#4382BF"/>
					<stop  offset="1" style="stop-color:#4B89C8"/>
				</linearGradient>
				<path fill="url(#SVGID_26_)" d="M392.53,273.123c0.039,0.269-2.135,0.807-4.854,1.202c-2.72,0.396-4.956,0.499-4.995,0.231
					c-0.039-0.269,2.134-0.807,4.854-1.202C390.254,272.959,392.491,272.855,392.53,273.123z"/>
			</g>
			<g>
				<linearGradient id="SVGID_27_" gradientUnits="userSpaceOnUse" x1="383.9785" y1="266.0371" x2="393.8301" y2="266.0371">
					<stop  offset="0" style="stop-color:#094C7E"/>
					<stop  offset="0.0282" style="stop-color:#0C4E81"/>
					<stop  offset="0.4516" style="stop-color:#2E6EA7"/>
					<stop  offset="0.7903" style="stop-color:#4382BF"/>
					<stop  offset="1" style="stop-color:#4B89C8"/>
				</linearGradient>
				<path fill="url(#SVGID_27_)" d="M393.829,265.321c0.039,0.269-2.134,0.807-4.854,1.202c-2.721,0.396-4.957,0.499-4.996,0.231
					c-0.039-0.269,2.135-0.807,4.854-1.202C391.554,265.156,393.79,265.054,393.829,265.321z"/>
			</g>
			<g>
				<linearGradient id="SVGID_28_" gradientUnits="userSpaceOnUse" x1="385.6201" y1="257.3027" x2="395.4717" y2="257.3027">
					<stop  offset="0" style="stop-color:#094C7E"/>
					<stop  offset="0.0282" style="stop-color:#0C4E81"/>
					<stop  offset="0.4516" style="stop-color:#2E6EA7"/>
					<stop  offset="0.7903" style="stop-color:#4382BF"/>
					<stop  offset="1" style="stop-color:#4B89C8"/>
				</linearGradient>
				<path fill="url(#SVGID_28_)" d="M395.471,256.585c0.039,0.269-2.135,0.807-4.854,1.202c-2.72,0.396-4.956,0.5-4.995,0.231
					s2.134-0.807,4.854-1.202S395.432,256.317,395.471,256.585z"/>
			</g>
		</g>
	</g>
	<g>
		<path fill="#F7D3A9" d="M68.425,246.903c0,0-1.617,4.747-0.54,8.111c1.076,3.364,2.19,2.169,2.19,2.169s-0.807-1.325-0.576-3.217
			c0.23-1.891,0.637-2.532,0.637-2.532l0.899,3.965c0,0,0.336-0.771,0.59-2.003c0.254-1.23-0.617-3.446-0.392-4.577
			c0.224-1.131,0.608-2.433,0.608-2.433L68.425,246.903z"/>
		<path fill="#F7D3A9" d="M133.63,184.696l0.269-1.754c0,0-1.821-3.975-1.267-4.84c0.555-0.866,2.387-2.486,2.387-2.486l1.135,0.174
			c0,0,2.026,2.633,2.209,3.506c0.183,0.872-0.99,3.999-1.82,6.374L133.63,184.696z"/>
		<polygon fill="#7FBBEF" points="134.068,173.763 135.081,181.943 136.199,181.689 135.162,173.597 134.492,172.266 		"/>
		<path fill="#F7D3A9" d="M133.846,176.72l1.173-1.104c0,0,0.57,1.152-0.695,2.453L133.846,176.72z"/>
		<g>
			<polygon fill="#F7D3A9" points="106.433,312.889 106.555,315.89 104.378,316.224 104.291,312.913 			"/>
			<path fill="#3F327A" d="M104.378,316.224c0,0,8.959-1.62,10.306-0.477c1.346,1.143-10.474,2.076-10.474,2.076L104.378,316.224z"
				/>
		</g>
		<g>
			<polygon fill="#F7D3A9" points="75.05,302.334 72.549,303.999 71.132,302.313 73.915,300.517 			"/>
			<path fill="#3F327A" d="M71.132,302.313c0,0,6.042,6.811,5.766,8.556c-0.276,1.744-7.219-7.867-7.219-7.867L71.132,302.313z"/>
		</g>
		<linearGradient id="SVGID_29_" gradientUnits="userSpaceOnUse" x1="71.5459" y1="275.999" x2="117.6323" y2="275.999">
			<stop  offset="0" style="stop-color:#094C7E"/>
			<stop  offset="0.0282" style="stop-color:#0C4E81"/>
			<stop  offset="0.4516" style="stop-color:#2E6EA7"/>
			<stop  offset="0.7903" style="stop-color:#4382BF"/>
			<stop  offset="1" style="stop-color:#4B89C8"/>
		</linearGradient>
		<path fill="url(#SVGID_29_)" d="M109.975,238.2c0,0,7.53,6.949,7.656,32.723s-8.864,42.875-8.864,42.875h-6.337
			c0,0,10.394-32.363-1.284-53.824c0,0-3.908,25.002-24.595,44.128l-5.004-5.317c0,0,15.257-19.169,15.378-43.139
			c0.024-4.749,0.819-7.152-0.833-12.467L109.975,238.2z"/>
		<linearGradient id="SVGID_30_" gradientUnits="userSpaceOnUse" x1="67.8677" y1="216.9668" x2="136.9922" y2="216.9668">
			<stop  offset="0" style="stop-color:#094C7E"/>
			<stop  offset="0.0282" style="stop-color:#0C4E81"/>
			<stop  offset="0.4516" style="stop-color:#2E6EA7"/>
			<stop  offset="0.7903" style="stop-color:#4382BF"/>
			<stop  offset="1" style="stop-color:#4B89C8"/>
		</linearGradient>
		<path fill="url(#SVGID_30_)" d="M105.714,209.184c0,0,19.706-5.317,24.71-19.08l2.815-6.255l3.753,1.251
			c0,0-0.979,25.329-25.433,32.22l-0.389,1.485c-1.734,6.619-1.797,13.565-0.186,20.215l2.47,5.118l-26.322,5.946
			c0,0-3.291-12.9-0.229-26.541c0,0-5.734-1.27-15.346,25.643l-3.69-0.741c0,0,5.317-36.133,24.396-41.138L105.714,209.184z"/>
		<g>
			<path fill="#F7D3A9" d="M106.091,194.396l1.487,6.907c0.331,1.538-0.652,3.052-2.191,3.376l-0.909,0.19l-0.345,4.836
				l-6.735-0.479l0.971-13.644L106.091,194.396z"/>
			<path fill="#353E70" d="M100.704,205.459c0,0,2.661-1.172,2.76-3.185c0,0-3.505-2.159-2.313-3.087s3.056,1.343,3.056,1.343
				s-1.04-3.112-0.58-3.868c0,0,4.932,0.345,4.341-2.618c0,0-1.283-1.342-4.373-1.738c-3.09-0.396-5.173,4.724-5.173,4.724
				L100.704,205.459z"/>
			<path fill="#353E70" d="M102.804,192.563c-0.689-0.637-1.679-0.837-2.618-0.842c-2.342-0.013-4.667,1.083-6.147,2.897
				s-2.088,4.312-1.605,6.604c0.11,0.524,0.277,1.044,0.567,1.495c0.754,1.174,2.182,1.688,3.507,2.124
				c1.157,0.382,3.183,1.093,4.208,0.436c0,0-1.549-4.808-0.562-7.694C101.142,194.696,102.804,192.563,102.804,192.563z"/>
			<path fill="#353E70" d="M93.129,197.659c-1.8-1.423-4.755-1.019-6.107,0.836c-0.878,1.203-1.14,2.871-2.328,3.77
				c-1.402,1.062-3.37,0.563-5.124,0.447c-3.097-0.205-6.365,1.122-8.068,3.717s-1.483,6.426,0.812,8.516
				c1.509,1.374,3.665,1.869,5.7,1.729c2.036-0.141,3.987-0.854,5.868-1.646c2.733-1.149,5.647-2.763,6.548-5.587
				c0.62-1.941,0.139-4.057,0.384-6.08c0.071-0.586,0.273-1.252,0.822-1.47c0.449-0.179,0.955,0.019,1.437-0.01
				c1.16-0.068,1.858-1.525,1.475-2.622s-1.501-1.786-2.629-2.063"/>
		</g>
		<path fill="#624FB5" d="M96.405,207.878c-1.699,1.102-3.416,2.216-4.813,3.681c-1.398,1.465-2.469,3.335-2.591,5.356
			c-0.031,0.508,0.021,1.072,0.383,1.431c0.2,0.197,0.471,0.307,0.742,0.38c2.1,0.571,4.223-0.669,6.047-1.856
			c3.042-1.981,6.135-4.006,8.441-6.81c0.169-0.206,0.342-0.486,0.213-0.721c-0.078-0.142-0.242-0.208-0.394-0.264
			C102.294,208.289,98.619,208.416,96.405,207.878"/>
		<g>
			<path fill="#CE6C5F" d="M104.872,210.358c0.011,0.008-0.053,0.113-0.185,0.308c-0.132,0.193-0.331,0.477-0.592,0.838
				c-0.132,0.183-0.278,0.383-0.437,0.602c-0.174,0.21-0.362,0.437-0.563,0.68c-0.204,0.244-0.421,0.505-0.651,0.78
				c-0.242,0.266-0.509,0.538-0.784,0.828c-1.11,1.145-2.53,2.444-4.353,3.543c-0.906,0.555-1.913,1.045-3,1.449
				c-1.094,0.381-2.273,0.666-3.507,0.747c-0.619,0.04-1.224,0.034-1.836-0.043c-0.307-0.048-0.617-0.13-0.901-0.295
				c-0.284-0.161-0.525-0.432-0.635-0.743c-0.22-0.632-0.058-1.244,0.097-1.773c0.158-0.525,0.314-1.053,0.53-1.547
				c0.431-0.994,1.055-1.811,1.66-2.53c0.609-0.72,1.222-1.346,1.791-1.904c1.138-1.118,2.107-1.968,2.78-2.552
				c0.339-0.288,0.604-0.511,0.787-0.657c0.183-0.147,0.283-0.22,0.292-0.21c0.009,0.011-0.074,0.103-0.239,0.269
				s-0.414,0.406-0.737,0.712c-0.64,0.617-1.58,1.497-2.686,2.634c-0.553,0.568-1.149,1.2-1.738,1.918
				c-0.585,0.717-1.178,1.517-1.578,2.463c-0.201,0.473-0.348,0.981-0.503,1.512c-0.151,0.509-0.268,1.065-0.097,1.531
				c0.163,0.472,0.683,0.713,1.235,0.787c0.56,0.069,1.16,0.077,1.752,0.037c1.191-0.077,2.337-0.351,3.404-0.717
				c1.06-0.391,2.048-0.862,2.942-1.397c1.797-1.06,3.218-2.319,4.341-3.428c0.279-0.28,0.545-0.548,0.796-0.801
				c0.237-0.267,0.46-0.519,0.669-0.755c0.209-0.234,0.404-0.453,0.584-0.655c0.168-0.209,0.322-0.402,0.461-0.576
				c0.278-0.347,0.497-0.613,0.649-0.792C104.775,210.44,104.86,210.351,104.872,210.358z"/>
		</g>
		<g>
			<path fill="#CE6C5F" d="M104.886,212.227c0.018,0.034-0.342,0.211-0.889,0.664c-0.546,0.451-1.246,1.222-1.86,2.335
				c-0.63,1.109-1.148,2.536-1.72,4.141c-0.294,0.799-0.622,1.638-1.048,2.473c-0.429,0.831-0.963,1.667-1.688,2.371
				c-0.78,0.782-1.75,1.296-2.697,1.649c-0.476,0.174-0.948,0.333-1.444,0.412c-0.489,0.077-1.02,0.064-1.474-0.165
				c-0.458-0.223-0.769-0.636-0.934-1.055c-0.169-0.423-0.219-0.867-0.182-1.277c0.075-0.823,0.387-1.5,0.631-2.087l0.216,0.134
				c-0.229,0.253-0.572,0.307-0.838,0.257c-0.273-0.046-0.505-0.185-0.667-0.362c-0.328-0.381-0.304-0.832-0.231-1.13
				c0.081-0.31,0.219-0.515,0.318-0.641c0.103-0.126,0.172-0.176,0.18-0.169c0.035,0.021-0.239,0.261-0.361,0.839
				c-0.051,0.276-0.034,0.678,0.241,0.961c0.137,0.139,0.335,0.246,0.556,0.273c0.218,0.031,0.461-0.023,0.609-0.199l0.488-0.58
				l-0.271,0.714c-0.226,0.595-0.506,1.262-0.557,2.013c-0.025,0.371,0.027,0.763,0.18,1.126c0.151,0.362,0.413,0.691,0.779,0.863
				c0.364,0.18,0.812,0.192,1.258,0.118c0.448-0.074,0.908-0.231,1.368-0.404c0.916-0.349,1.824-0.835,2.558-1.571
				c0.685-0.664,1.2-1.461,1.622-2.266c0.419-0.81,0.75-1.633,1.051-2.424c0.586-1.586,1.144-3.038,1.818-4.151
				c0.66-1.124,1.417-1.894,2.006-2.317c0.143-0.112,0.283-0.194,0.402-0.268c0.117-0.076,0.223-0.13,0.31-0.169
				C104.787,212.252,104.88,212.215,104.886,212.227z"/>
		</g>
		<path opacity="0.18" fill="#8982BC" d="M93.891,226.53c0,0-2.017,6.042,2.949,2.65c4.966-3.393,5.68-15.675,5.68-15.675
			S99.121,225.788,93.891,226.53z"/>
		<g>
			<path fill="#453C87" d="M113.12,284.3c-0.009,0.114-1.311,0.079-2.893,0.275c-1.583,0.187-2.839,0.532-2.875,0.423
				c-0.037-0.095,1.198-0.619,2.828-0.813C111.809,283.984,113.133,284.199,113.12,284.3z"/>
		</g>
		<g>
			<path fill="#453C87" d="M113.94,282.214c0.026,0.04-0.26,0.294-0.804,0.58c-0.542,0.286-1.354,0.578-2.291,0.688
				c-0.937,0.108-1.795,0.011-2.389-0.143c-0.596-0.152-0.932-0.334-0.916-0.379c0.032-0.117,1.466,0.354,3.259,0.132
				C112.595,282.896,113.882,282.107,113.94,282.214z"/>
		</g>
		<g>
			<path fill="#453C87" d="M90.388,279.611c-0.042,0.091-1.111-0.436-1.964-1.591c-0.863-1.147-1.063-2.322-0.963-2.337
				c0.112-0.034,0.465,1.026,1.278,2.103C89.537,278.872,90.453,279.514,90.388,279.611z"/>
		</g>
		<g>
			<path fill="#453C87" d="M89.827,280.272c-0.057,0.013-0.137-0.199-0.42-0.406c-0.276-0.206-0.746-0.455-1.23-0.749
				c-0.981-0.58-1.795-1.032-1.75-1.134c0.042-0.098,0.945,0.202,1.95,0.795c0.498,0.304,0.938,0.58,1.221,0.886
				C89.884,279.975,89.878,280.273,89.827,280.272z"/>
		</g>
		<g>
			<path fill="#453C87" d="M106.944,261.938c0.001,0.045-0.648,0.078-1.624-0.24c-0.979-0.31-2.21-0.961-3.579-1.638
				c-1.368-0.689-2.596-1.332-3.476-1.815c-0.88-0.482-1.412-0.806-1.388-0.854c0.024-0.049,0.601,0.187,1.513,0.606
				c0.912,0.419,2.16,1.022,3.527,1.712c1.373,0.68,2.579,1.365,3.496,1.727C106.331,261.809,106.95,261.875,106.944,261.938z"/>
		</g>
	</g>
	<g opacity="0.18">
		<path fill="#8982BC" d="M215.218,60.501c-1.44,1.147-1.791,3.269-1.319,5.049c0.471,1.78,1.611,3.297,2.748,4.746
			c2.849,3.632,5.838,7.153,8.96,10.553c1.532,1.668,3.105,3.32,4.327,5.227c4.901,7.648,3.278,17.553,4.237,26.586
			c0.216,2.037,1.167,4.591,3.215,4.545c0.756-0.017,1.444-0.423,2.061-0.859c4.16-2.94,6.806-7.915,6.917-13.007
			c0.032-1.483-0.131-3.011,0.347-4.415c0.664-1.951,2.418-3.28,3.797-4.813c2.855-3.172,4.192-7.39,5.452-11.468
			c1.444-4.675,2.848-9.934,0.592-14.276c-1.598-3.075-4.755-5.033-7.973-6.316c-10.477-4.177-22.249-2.618-33.409-0.995"/>
	</g>
	<g>
		<g>
			<polygon fill="#F7D3A9" points="243.004,114.532 243.126,117.534 240.949,117.868 240.862,114.557 			"/>
			<path fill="#3F327A" d="M240.949,117.868c0,0,8.959-1.62,10.306-0.477s-10.474,2.077-10.474,2.077L240.949,117.868z"/>
		</g>
		<g>
			<polygon fill="#F7D3A9" points="249.517,98.132 247.976,100.712 245.972,99.8 247.711,96.981 			"/>
			<path fill="#3F327A" d="M245.972,99.8c0,0,8.385,3.546,8.887,5.24s-9.903-3.994-9.903-3.994L245.972,99.8z"/>
		</g>
		<linearGradient id="SVGID_31_" gradientUnits="userSpaceOnUse" x1="237.4917" y1="46.6406" x2="270.9697" y2="46.6406">
			<stop  offset="0" style="stop-color:#094C7E"/>
			<stop  offset="0.0282" style="stop-color:#0C4E81"/>
			<stop  offset="0.4516" style="stop-color:#2E6EA7"/>
			<stop  offset="0.7903" style="stop-color:#4382BF"/>
			<stop  offset="1" style="stop-color:#4B89C8"/>
		</linearGradient>
		<path fill="url(#SVGID_31_)" d="M237.492,35.968c1.508-1.713,24.628,23.617,29.563,26.284c4.936,2.667,3.803,0,3.803,0
			l-9.904-11.047l-19.046-21.361L237.492,35.968z"/>
		<linearGradient id="SVGID_32_" gradientUnits="userSpaceOnUse" x1="215.0576" y1="42.626" x2="243.0889" y2="42.626">
			<stop  offset="0" style="stop-color:#094C7E"/>
			<stop  offset="0.0282" style="stop-color:#0C4E81"/>
			<stop  offset="0.4516" style="stop-color:#2E6EA7"/>
			<stop  offset="0.7903" style="stop-color:#4382BF"/>
			<stop  offset="1" style="stop-color:#4B89C8"/>
		</linearGradient>
		<path fill="url(#SVGID_32_)" d="M240.443,26.387c-4.188-2.031-9.181-1.512-12.828,1.381c-0.038,0.03-0.076,0.061-0.114,0.091
			c-6.361,5.089-14.396,15.088-12.016,32.23l22.475-2.667c0,0-3.16-3.819,0.912-15.125c2.241-6.219,4.216-12.026,4.216-12.026
			L240.443,26.387z"/>
		<linearGradient id="SVGID_33_" gradientUnits="userSpaceOnUse" x1="228.3428" y1="43.6973" x2="259.3096" y2="43.6973">
			<stop  offset="0" style="stop-color:#094C7E"/>
			<stop  offset="0.0282" style="stop-color:#0C4E81"/>
			<stop  offset="0.4516" style="stop-color:#2E6EA7"/>
			<stop  offset="0.7903" style="stop-color:#4382BF"/>
			<stop  offset="1" style="stop-color:#4B89C8"/>
		</linearGradient>
		<path fill="url(#SVGID_33_)" d="M228.438,34.568c0,0,1.904,20.189,9.523,22.855s21.333,2.667,21.333,2.667
			s1.053-1.405-13.53-4.888c-0.605-0.145-1.238-0.293-1.898-0.445c0,0-8.268-4.777-7.841-19.384c0.02-0.662-0.007-1.324-0.106-1.979
			c-0.329-2.149-1.368-6.463-4.397-6.064C227.501,27.86,228.438,34.568,228.438,34.568z"/>
		<path fill="#FAFAFA" d="M215.486,60.09c0,0,17.142,20.57,20.57,26.665c3.429,6.095,1.905,27.753,3.048,28.352
			c1.143,0.599,5.518,0.007,5.518,0.007l0.271-16.437l0.185-8.607c0.089-4.129-0.623-8.236-2.094-12.095l-4.642-12.171
			c0,0,18.95,1.177,15.619,10.666c-4.187,11.923-8,20.951-8,20.951l3.81,1.523c0,0,17.887-22.475,13.713-32.378
			c-4.173-9.904-25.522-9.143-25.522-9.143L215.486,60.09z"/>
		<path fill="#F7D3A9" d="M252.528,20.938l-3.026,6.384c-0.674,1.422-2.375,2.024-3.793,1.344l-0.837-0.402l-1.416,1.595
			c-0.995,1.122-2.711,1.225-3.833,0.229l-0.672-0.596c-1.296-1.15-1.415-3.134-0.265-4.431l6.995-7.884L252.528,20.938z"/>
		<g>
			<path fill="#624FB5" d="M243.055,30.219c0.018,0.011-0.027,0.146-0.217,0.302c-0.186,0.16-0.525,0.295-0.941,0.352
				c-0.418,0.048-0.894,0.098-1.464,0.049c-0.282-0.03-0.588-0.103-0.873-0.263c-0.285-0.158-0.526-0.394-0.725-0.657
				c-0.764-1.071-0.97-2.267-0.952-3.094c0.018-0.839,0.221-1.325,0.262-1.312c0.063,0.013-0.038,0.51,0.016,1.305
				c0.048,0.783,0.297,1.898,0.988,2.865c0.175,0.232,0.376,0.429,0.602,0.559c0.225,0.132,0.477,0.202,0.728,0.238
				c0.5,0.063,1,0.045,1.391,0.033c0.394-0.02,0.697-0.1,0.884-0.203C242.944,30.295,243.03,30.199,243.055,30.219z"/>
		</g>
		<g>
			<path fill="#624FB5" d="M231.271,32.398c0.023,0.014-0.175,0.375-0.55,1.017c-0.39,0.656-0.935,1.576-1.604,2.705
				c-1.338,2.287-3.196,5.463-4.642,9.232c-0.712,1.886-1.232,3.741-1.546,5.457c-0.315,1.716-0.439,3.289-0.426,4.608
				c0.009,1.32,0.119,2.387,0.231,3.118c0.109,0.732,0.187,1.136,0.155,1.144c-0.013,0.003-0.047-0.094-0.101-0.283
				c-0.048-0.189-0.138-0.467-0.205-0.833c-0.159-0.729-0.313-1.803-0.358-3.14c-0.048-1.336,0.048-2.934,0.348-4.677
				c0.299-1.743,0.815-3.625,1.536-5.532c1.463-3.811,3.372-6.983,4.772-9.237c0.706-1.127,1.296-2.026,1.712-2.643
				C231.007,32.717,231.248,32.384,231.271,32.398z"/>
		</g>
		<path fill="#353E70" d="M252.582,18.595c-0.017-0.185-0.041-0.369-0.079-0.546c-0.607-2.861-3.33-5.129-6.254-5.21
			c-3.974-0.11-7.425,3.319-11.395,3.118c-1.515-0.077-2.943-0.682-4.396-1.116c-4.236-1.266-9.687-0.592-11.788,3.298
			c-0.563,1.042-0.832,2.228-1.452,3.237c-1.759,2.864-5.619,3.426-8.446,5.243c-3.142,2.02-5.007,5.87-4.646,9.588
			c0.151,1.548,0.728,3.154,1.985,4.07c0,0,4.277,5.455,13.958,0c7.896-4.448,19.92-11.409,24.09-13.827
			c0.555-0.137,1.092-0.396,1.488-0.863c1.313-0.808,1.515-1.575,1.463-2.21c0.166,0.665,0.188,1.279,0.188,1.279
			s0.675-1.953,1.366-2.919c0.055,0.002,0.094,0,0.152,0.003c0.355,0.018,0.722,0.042,1.083,0.037
			c1.14,0.798,3.36,1.995,4.332,0.023C254.23,21.8,254.076,20.403,252.582,18.595z"/>
	</g>
	<g opacity="0.18">
		<path fill="#8982BC" d="M235.792,157.536c0.056-0.487,0.368-0.855,0.789-1.078c0.611-0.322,1.45-0.339,2.063,0.024
			c1.035,0.615,1.509,1.853,1.791,3.023s0.466,2.416,1.179,3.386c0.222,0.303,0.515,0.583,0.884,0.654
			c0.658,0.125,1.225-0.437,1.673-0.935c1.283-1.423,2.775-2.771,4.62-3.289c1.845-0.518,4.105,0.026,5.067,1.684
			c0.52,0.895,0.602,1.969,0.672,3.002c0.563,8.297,1.126,16.594,1.689,24.891c0.262,3.856,0.513,7.811-0.591,11.515
			c-0.997,3.348-10.574,13.028-15.15,13.028"/>
	</g>
	<g>
		<g>
			<polygon fill="#F7D3A9" points="236.451,241.171 234.255,285.813 227.864,315.618 224.866,314.793 227.372,284.979 
				222.373,254.263 217.928,282.895 208.054,315.731 205.415,315.822 210.146,283.135 208.85,243.348 			"/>
			<path fill="#3F327A" d="M245.877,166.19l-2.949,22.862l-14.245,13.752l-12.771,0.187l-4.635,8.054l1.861,7.284
				c1.362,5.332,0.893,10.967-1.333,16l-2.955,9.019l27.901,3.212c0.917-21.186,0.488-22.913-2.973-34.958l16.474-21.343
				l0.046-24.872L245.877,166.19z"/>
			<path fill="#3F327A" d="M234.08,165.387c-1.384,0.759-10.334,23.608-10.334,23.608l0.517,14.613l-8.35,1.518l0.001-16.745
				l14.585-25.677L234.08,165.387z"/>
		</g>
		<g>
			<path fill="#F7D3A9" d="M226.829,188.864l2.552,6.588c0.568,1.467-0.165,3.116-1.634,3.677l-0.868,0.332l0.419,4.83l-6.728,0.583
				l-1.182-13.627L226.829,188.864z"/>
			<path fill="#FAFAFA" d="M223.112,201.301c0,0,2.577-2.241,2.358-4.244c0,0-3.8-1.582-2.769-2.687
				c1.031-1.104,3.229,0.847,3.229,0.847s-1.516-2.911-1.18-3.729c0,0,4.925-0.434,3.876-3.267c0,0-1.478-1.125-4.592-1.031
				c-3.114,0.094-4.367,5.478-4.367,5.478L223.112,201.301z"/>
			<path fill="#FAFAFA" d="M224.52,187.534c-2.902-0.773-6.162-0.049-8.464,1.881c-2.302,1.929-3.584,5.012-3.33,8.005
				c0.179,2.102,1.047,4.296,0.226,6.238c-0.422,0.999-1.239,1.769-2.039,2.5c-2.339,2.137-4.759,4.238-6.573,6.836
				s-2.986,5.803-2.485,8.932c0.213,1.329,0.734,2.625,1.605,3.651c0.458,0.539,1.008,1.002,1.411,1.584
				c1.439,2.078,0.63,4.982,1.512,7.352c1.132,3.041,4.695,4.399,7.923,4.727c4.429,0.449,9.204-0.488,12.468-3.516
				c3.265-3.026,4.479-8.421,1.965-12.094c-1.245-1.818-3.36-3.417-3.153-5.61c0.129-1.363,1.157-2.444,1.749-3.679
				c1.185-2.472,0.4-5.725-1.782-7.384c-0.805-0.611-1.76-1.019-2.505-1.702c-0.745-0.683-1.249-1.802-0.802-2.709
				c0.344-0.698,1.148-1.075,1.508-1.766c0.538-1.031-0.115-2.28-0.875-3.161c-0.76-0.882-1.696-1.756-1.806-2.914
				c-0.083-0.881,0.341-1.721,0.752-2.504c0.813-1.545,1.625-3.09,2.438-4.636"/>
		</g>
		<polygon fill="#624FB5" points="208.85,243.348 206.835,258.907 221.857,261.33 222.5,255.175 223.341,261.181 238.363,261.181 
			236.751,246.56 		"/>
		<path fill="#3F327A" d="M205.689,314.463c0,0,9.104-0.016,10.228,1.347c1.125,1.363-10.675,0.198-10.675,0.198L205.689,314.463z"
			/>
		<path fill="#3F327A" d="M224.169,315.11c0,0,8.959-1.62,10.306-0.478c1.347,1.144-10.474,2.077-10.474,2.077L224.169,315.11z"/>
		<g>
			<path fill="#453C87" d="M228.322,256.978c-0.051,0.102-2.215-0.918-4.952-2.003c-2.735-1.093-5.007-1.838-4.975-1.947
				c0.015-0.051,0.604,0.071,1.537,0.341c0.932,0.27,2.206,0.694,3.583,1.241c1.376,0.549,2.593,1.115,3.456,1.561
				C227.833,256.614,228.346,256.931,228.322,256.978z"/>
		</g>
		<g>
			<path fill="#453C87" d="M222.145,259.719c-0.016,0.058-0.866-0.145-2.246-0.425c-1.379-0.284-3.294-0.623-5.424-0.917
				c-2.13-0.292-4.067-0.507-5.468-0.679c-1.401-0.17-2.267-0.297-2.262-0.352c0.005-0.054,0.879-0.024,2.289,0.075
				c1.409,0.102,3.355,0.273,5.495,0.566c2.139,0.295,4.061,0.681,5.432,1.034C221.333,259.375,222.159,259.672,222.145,259.719z"/>
		</g>
		<g>
			<path fill="#453C87" d="M237.872,259.008c0,0.056-0.847,0.111-2.216,0.183c-1.369,0.071-3.259,0.165-5.345,0.294
				c-2.086,0.13-3.974,0.271-5.341,0.369s-2.215,0.148-2.221,0.094c-0.006-0.053,0.831-0.2,2.194-0.369
				c1.363-0.17,3.252-0.355,5.344-0.485c2.091-0.13,3.989-0.18,5.362-0.18C237.022,258.912,237.872,258.955,237.872,259.008z"/>
		</g>
		<g>
			<path fill="#453C87" d="M237.27,250.228c0.018,0.043-0.313,0.246-0.923,0.352c-0.602,0.108-1.499,0.075-2.367-0.338
				c-0.868-0.414-1.458-1.091-1.753-1.627c-0.302-0.541-0.353-0.926-0.308-0.938c0.058-0.021,0.201,0.321,0.542,0.788
				c0.335,0.466,0.904,1.048,1.688,1.423c0.785,0.374,1.595,0.449,2.168,0.416C236.894,250.274,237.25,250.17,237.27,250.228z"/>
		</g>
		<g>
			
				<ellipse transform="matrix(0.1093 0.994 -0.994 0.1093 464.6412 -6.2055)" fill="#453C87" cx="235.783" cy="256.177" rx="5.423" ry="0.196"/>
		</g>
		<g>
			<path fill="#D3AB84" d="M210.333,284.063c0.042-0.103,0.833,0.134,1.809,0.399c0.974,0.27,1.775,0.47,1.759,0.58
				c-0.014,0.104-0.861,0.075-1.863-0.201C211.036,284.568,210.292,284.16,210.333,284.063z"/>
		</g>
		<g>
			<path fill="#D3AB84" d="M214.179,283.829c0.021,0.102-0.858,0.357-1.977,0.319c-1.118-0.032-1.98-0.343-1.952-0.442
				c0.026-0.11,0.895,0.021,1.965,0.051C213.285,283.793,214.16,283.718,214.179,283.829z"/>
		</g>
		<g>
			<path fill="#D3AB84" d="M231.868,284.369c0.025,0.104-0.777,0.386-1.807,0.544c-1.03,0.161-1.88,0.136-1.887,0.028
				c-0.008-0.109,0.814-0.258,1.827-0.416C231.013,284.369,231.842,284.262,231.868,284.369z"/>
		</g>
		<g>
			<path fill="#D3AB84" d="M230.893,283.486c0.039,0.103-0.47,0.39-1.12,0.68c-0.651,0.29-1.205,0.476-1.255,0.378
				c-0.049-0.096,0.433-0.442,1.095-0.736C230.274,283.513,230.855,283.386,230.893,283.486z"/>
		</g>
		<path fill="#F7D3A9" d="M233.314,165.387c0,0,3.929-2.105,3.871-2.372c-0.169-0.775-2.26,0.188-2.26,0.188
			s3.197-3.337,2.705-3.806c-0.302-0.287-2.259,1.409-2.259,1.409s1.234-1.987,0.848-2.417c-0.376-0.418-2.204,1.918-2.204,1.918
			s0.674-1.504,0.283-1.87c-0.269-0.252-3.818,5.773-3.818,5.773L233.314,165.387z"/>
		<path fill="#F7D3A9" d="M246.519,166.237c0,0-1.662-4.136-1.445-4.303c0.627-0.486,1.612,1.595,1.612,1.595
			s-0.31-4.61,0.367-4.654c0.416-0.026,0.829,2.53,0.829,2.53s0.329-2.315,0.901-2.397c0.557-0.079,0.459,2.885,0.459,2.885
			s0.448-1.586,0.983-1.615c0.368-0.021-0.777,6.877-0.777,6.877L246.519,166.237z"/>
	</g>
	<g>
		<g>
			<path fill="#F4F3FF" d="M158.326,262.524l10.276-25.048c0,0,28.502,9.602,28.202,10.201c-0.3,0.6-12.437,25.396-12.437,25.396
				L158.326,262.524z"/>
			<g>
				<path fill="#453C87" d="M173.577,241.622c0.005,0.003-0.024,0.063-0.086,0.172c-0.075,0.128-0.167,0.284-0.279,0.474
					c-0.261,0.434-0.612,1.02-1.039,1.731c-0.873,1.465-2.046,3.507-3.256,5.809c-1.208,2.304-2.224,4.43-2.934,5.979
					c-0.344,0.756-0.626,1.377-0.836,1.838c-0.092,0.199-0.168,0.364-0.23,0.499c-0.055,0.113-0.087,0.171-0.093,0.169
					c-0.006-0.003,0.014-0.066,0.057-0.185c0.053-0.139,0.118-0.308,0.197-0.513c0.174-0.445,0.439-1.083,0.779-1.865
					c0.679-1.566,1.677-3.706,2.887-6.014c1.212-2.307,2.408-4.342,3.312-5.79c0.452-0.725,0.826-1.305,1.093-1.7
					c0.124-0.182,0.227-0.332,0.311-0.454C173.53,241.67,173.571,241.618,173.577,241.622z"/>
			</g>
			<g>
				<path fill="#453C87" d="M187.299,248.716c-0.003,0.006-0.063-0.013-0.174-0.055c-0.132-0.053-0.292-0.117-0.484-0.193
					c-0.418-0.172-1.021-0.428-1.763-0.751c-1.484-0.645-3.522-1.561-5.756-2.611c-2.234-1.051-4.24-2.037-5.683-2.769
					c-0.722-0.366-1.303-0.666-1.702-0.88c-0.182-0.099-0.333-0.182-0.458-0.249c-0.104-0.06-0.157-0.093-0.153-0.099
					c0.003-0.007,0.062,0.016,0.171,0.063c0.129,0.059,0.286,0.13,0.474,0.216c0.436,0.208,1.021,0.486,1.729,0.823
					c1.486,0.708,3.49,1.662,5.706,2.716c2.224,1.034,4.237,1.969,5.729,2.663c0.712,0.33,1.299,0.604,1.737,0.807
					c0.187,0.091,0.341,0.165,0.469,0.227C187.247,248.679,187.302,248.71,187.299,248.716z"/>
			</g>
			<g>
				<path fill="#453C87" d="M189.062,246.109c0.006,0.003-0.031,0.084-0.106,0.234c-0.087,0.168-0.199,0.385-0.338,0.654
					c-0.312,0.586-0.744,1.397-1.273,2.393c-1.079,2.017-2.575,4.8-4.15,7.913c-1.574,3.115-2.901,5.982-3.805,8.082
					c-0.453,1.05-0.812,1.903-1.052,2.496c-0.117,0.279-0.211,0.505-0.284,0.679c-0.067,0.155-0.105,0.235-0.112,0.232
					c-0.006-0.002,0.02-0.087,0.075-0.246c0.064-0.178,0.147-0.407,0.25-0.693c0.218-0.602,0.558-1.464,0.995-2.521
					c0.872-2.117,2.182-4.998,3.757-8.117c1.577-3.116,3.094-5.891,4.204-7.891c0.552-0.982,1.003-1.784,1.328-2.362
					c0.153-0.263,0.276-0.475,0.371-0.637C189.007,246.18,189.056,246.105,189.062,246.109z"/>
			</g>
			<g>
				
					<ellipse transform="matrix(0.9123 0.4095 -0.4095 0.9123 116.9954 -52.1906)" fill="#453C87" cx="180.363" cy="247.089" rx="8.742" ry="0.098"/>
			</g>
			<g>
				<path fill="#453C87" d="M175.513,247.657c-0.033,0.048-0.699-0.386-1.589-0.777c-0.888-0.397-1.657-0.6-1.644-0.656
					c0.008-0.05,0.813,0.07,1.723,0.477C174.915,247.103,175.544,247.618,175.513,247.657z"/>
			</g>
			<g>
				<path fill="#453C87" d="M174.922,248.161c-0.034,0.049-0.707-0.413-1.626-0.794c-0.917-0.388-1.717-0.543-1.707-0.602
					c0.004-0.049,0.839,0.022,1.783,0.421C174.318,247.579,174.955,248.124,174.922,248.161z"/>
			</g>
			<g>
				<path fill="#453C87" d="M174.701,249.064c-0.031,0.048-0.732-0.369-1.632-0.81c-0.899-0.443-1.657-0.744-1.639-0.798
					c0.016-0.049,0.813,0.172,1.725,0.622C174.069,248.525,174.73,249.022,174.701,249.064z"/>
			</g>
			<g>
				<path fill="#453C87" d="M178.026,247.752c-0.004-0.012,0.065-0.055,0.206-0.098c0.14-0.039,0.358-0.086,0.628-0.021
					c0.264,0.06,0.581,0.289,0.647,0.681c0.034,0.196-0.045,0.408-0.169,0.563c-0.124,0.159-0.294,0.29-0.493,0.368
					c-0.198,0.079-0.415,0.102-0.616,0.058c-0.202-0.044-0.375-0.154-0.5-0.291c-0.259-0.272-0.3-0.672-0.165-0.922
					c0.126-0.253,0.334-0.377,0.48-0.413c0.148-0.039,0.232-0.011,0.231-0.001c0,0.017-0.082,0.017-0.206,0.072
					c-0.122,0.054-0.289,0.181-0.378,0.398c-0.095,0.213-0.049,0.52,0.17,0.741c0.208,0.228,0.578,0.315,0.912,0.176
					c0.325-0.129,0.594-0.441,0.555-0.727c-0.039-0.295-0.285-0.507-0.506-0.57c-0.229-0.073-0.436-0.054-0.574-0.037
					C178.109,247.747,178.031,247.766,178.026,247.752z"/>
			</g>
			<g>
				<path fill="#453C87" d="M183.48,250.549c-0.017,0.05-0.88-0.206-1.897-0.646c-1.019-0.438-1.797-0.89-1.772-0.937
					c0.025-0.049,0.838,0.321,1.85,0.757C182.67,250.159,183.499,250.496,183.48,250.549z"/>
			</g>
			<g>
				<path fill="#453C87" d="M181.108,250.299c-0.013,0.051-0.438-0.021-0.911-0.249c-0.475-0.228-0.795-0.514-0.764-0.556
					c0.033-0.046,0.392,0.16,0.849,0.379C180.738,250.093,181.124,250.245,181.108,250.299z"/>
			</g>
			<g>
				<path fill="#453C87" d="M174.922,254.111c0.004-0.002,0.052,0.013,0.14,0.044c0.102,0.038,0.227,0.084,0.378,0.14
					c0.347,0.132,0.816,0.312,1.399,0.533c1.205,0.47,2.875,1.122,4.839,1.888l-0.11,0.038c0.769-1.306,1.624-2.758,2.524-4.287
					c0.03-0.05,0.059-0.1,0.088-0.148l0.051,0.143c-2.514-0.913-4.831-1.754-6.692-2.43l0.092-0.031
					C176.097,252.329,175.249,253.616,174.922,254.111c-0.025-0.012,0.209-0.438,0.658-1.165c0.448-0.73,1.107-1.771,1.92-3.032
					l0.033-0.052l0.059,0.021c1.865,0.666,4.186,1.494,6.705,2.394l0.112,0.04l-0.061,0.102c-0.029,0.049-0.058,0.099-0.087,0.148
					c-0.906,1.526-1.767,2.977-2.54,4.278l-0.04,0.066l-0.071-0.028c-1.973-0.808-3.65-1.495-4.859-1.99
					c-0.569-0.238-1.026-0.43-1.364-0.57c-0.142-0.063-0.259-0.112-0.354-0.154C174.957,254.133,174.918,254.113,174.922,254.111z"
					/>
			</g>
			<g>
				<path fill="#453C87" d="M173.355,255.506c-0.004-0.012,0.065-0.055,0.207-0.098c0.139-0.039,0.358-0.086,0.627-0.021
					c0.264,0.06,0.582,0.289,0.647,0.681c0.034,0.196-0.045,0.408-0.169,0.563c-0.124,0.159-0.294,0.29-0.492,0.368
					c-0.198,0.079-0.416,0.102-0.616,0.058c-0.203-0.044-0.375-0.154-0.501-0.291c-0.259-0.272-0.3-0.672-0.165-0.922
					c0.126-0.253,0.334-0.377,0.48-0.413c0.148-0.039,0.232-0.011,0.231-0.001c0,0.017-0.081,0.017-0.205,0.072
					c-0.122,0.054-0.289,0.181-0.379,0.398c-0.095,0.213-0.048,0.52,0.17,0.741c0.209,0.228,0.578,0.315,0.913,0.176
					c0.324-0.129,0.594-0.441,0.554-0.727c-0.039-0.295-0.285-0.507-0.506-0.57c-0.229-0.073-0.436-0.054-0.574-0.037
					C173.438,255.501,173.359,255.52,173.355,255.506z"/>
			</g>
			<g>
				<path fill="#453C87" d="M178.809,258.303c-0.017,0.05-0.88-0.206-1.897-0.646c-1.019-0.438-1.797-0.89-1.772-0.937
					c0.025-0.049,0.839,0.322,1.85,0.757C178,257.913,178.828,258.25,178.809,258.303z"/>
			</g>
			<g>
				<path fill="#453C87" d="M176.437,258.053c-0.013,0.051-0.438-0.021-0.911-0.249c-0.474-0.228-0.795-0.514-0.763-0.556
					c0.032-0.046,0.392,0.16,0.849,0.379C176.067,257.847,176.452,257.999,176.437,258.053z"/>
			</g>
			<g>
				<path fill="#453C87" d="M170.251,261.865c0.005-0.002,0.052,0.013,0.14,0.044c0.102,0.038,0.227,0.084,0.378,0.14
					c0.347,0.132,0.816,0.312,1.399,0.533c1.205,0.471,2.875,1.122,4.839,1.888l-0.11,0.038c0.769-1.306,1.624-2.758,2.525-4.287
					c0.029-0.05,0.059-0.1,0.087-0.148l0.051,0.143c-2.514-0.913-4.831-1.754-6.692-2.43l0.092-0.031
					C171.426,260.083,170.578,261.37,170.251,261.865c-0.025-0.012,0.209-0.438,0.658-1.165c0.448-0.73,1.107-1.771,1.92-3.032
					l0.033-0.052l0.059,0.021c1.865,0.666,4.186,1.494,6.705,2.394l0.112,0.04l-0.061,0.102c-0.029,0.049-0.058,0.099-0.087,0.148
					c-0.906,1.526-1.767,2.977-2.54,4.278l-0.04,0.066l-0.071-0.028c-1.972-0.808-3.649-1.494-4.859-1.99
					c-0.568-0.238-1.026-0.43-1.364-0.57c-0.142-0.063-0.259-0.112-0.354-0.154C170.285,261.887,170.247,261.867,170.251,261.865z"
					/>
			</g>
			<g>
				
					<ellipse transform="matrix(0.452 -0.892 0.892 0.452 -128.0858 307.2325)" fill="#453C87" cx="186.024" cy="257.87" rx="11.096" ry="0.098"/>
			</g>
			<g>
				
					<ellipse transform="matrix(0.9442 0.3293 -0.3293 0.9442 93.3158 -48.4618)" fill="#453C87" cx="189.729" cy="251.261" rx="2.721" ry="0.098"/>
			</g>
			<g>
				<path fill="#453C87" d="M190.086,253.49c-0.046,0.022-0.474-0.822-0.814-1.935c-0.344-1.111-0.465-2.049-0.415-2.058
					c0.056-0.01,0.262,0.901,0.602,2C189.796,252.598,190.138,253.468,190.086,253.49z"/>
			</g>
			<g>
				
					<ellipse transform="matrix(-0.0709 0.9975 -0.9975 -0.0709 457.0928 85.5228)" fill="#453C87" cx="188.716" cy="255.641" rx="0.882" ry="0.098"/>
			</g>
			<g>
				<path fill="#453C87" d="M189.923,255.648c-0.007,0.056-0.46,0.038-1.008,0.104c-0.549,0.062-0.986,0.183-1.005,0.129
					c-0.02-0.047,0.406-0.259,0.983-0.323C189.468,255.489,189.932,255.598,189.923,255.648z"/>
			</g>
			<g>
				<path fill="#453C87" d="M169.287,242.23c0.029-0.049,0.735,0.331,1.627,0.75c0.891,0.422,1.633,0.725,1.615,0.777
					c-0.017,0.05-0.796-0.173-1.698-0.6C169.928,242.734,169.259,242.274,169.287,242.23z"/>
			</g>
			<g>
				
					<ellipse transform="matrix(0.4909 -0.8712 0.8712 0.4909 -123.6458 271.9213)" fill="#453C87" cx="170.852" cy="241.761" rx="3.005" ry="0.098"/>
			</g>
			<g>
				
					<ellipse transform="matrix(0.0921 0.9957 -0.9957 0.0921 394.2282 49.9266)" fill="#453C87" cx="169.735" cy="241.154" rx="0.668" ry="0.098"/>
			</g>
			<g>
				
					<ellipse transform="matrix(0.9813 -0.1925 0.1925 0.9813 -43.2561 37.2362)" fill="#453C87" cx="170.017" cy="241.246" rx="1.111" ry="0.099"/>
			</g>
		</g>
		<path fill="#F7D3A9" d="M186.778,261.444c0,0,1.27-4.272,1.543-4.27c0.793,0.01,0.271,2.252,0.271,2.252s2.624-3.804,3.182-3.416
			c0.342,0.237-0.924,2.496-0.924,2.496s1.698-1.608,2.196-1.317c0.486,0.285-1.434,2.545-1.434,2.545s1.336-0.963,1.774-0.653
			c0.301,0.213-4.885,4.902-4.885,4.902L186.778,261.444z"/>
		<path fill="#F7D3A9" d="M186.778,261.444c0,0,1.27-4.272,1.543-4.27c0.793,0.01,0.271,2.252,0.271,2.252s2.624-3.804,3.182-3.416
			c0.342,0.237-0.924,2.496-0.924,2.496s1.698-1.608,2.196-1.317c0.486,0.285-1.434,2.545-1.434,2.545s1.336-0.963,1.774-0.653
			c0.301,0.213-4.885,4.902-4.885,4.902L186.778,261.444z"/>
		<g>
			<polygon fill="#F7D3A9" points="159.494,357.474 159.616,360.476 157.439,360.81 157.352,357.498 			"/>
			<path fill="#3F327A" d="M157.439,360.81c0,0,8.959-1.621,10.306-0.478c1.346,1.144-10.474,2.076-10.474,2.076L157.439,360.81z"/>
		</g>
		<g>
			<polygon fill="#F7D3A9" points="128.11,346.919 125.61,348.584 124.193,346.898 126.976,345.103 			"/>
			<path fill="#3F327A" d="M124.193,346.898c0,0,6.042,6.811,5.766,8.555c-0.276,1.745-7.219-7.867-7.219-7.867L124.193,346.898z"/>
		</g>
		<g>
			<linearGradient id="SVGID_34_" gradientUnits="userSpaceOnUse" x1="124.6069" y1="323.5049" x2="170.6934" y2="323.5049">
				<stop  offset="0" style="stop-color:#094C7E"/>
				<stop  offset="0.0282" style="stop-color:#0C4E81"/>
				<stop  offset="0.4516" style="stop-color:#2E6EA7"/>
				<stop  offset="0.7903" style="stop-color:#4382BF"/>
				<stop  offset="1" style="stop-color:#4B89C8"/>
			</linearGradient>
			<path fill="url(#SVGID_34_)" d="M140.078,292.021c0.307,2.771-0.076,4.933-0.093,8.21c-0.121,23.97-15.378,43.139-15.378,43.139
				l5.004,5.317c20.688-19.126,24.596-44.319,24.596-44.319c11.678,21.462,1.284,53.633,1.284,53.633h6.337
				c0,0,8.989-16.91,8.864-42.684c-0.064-13.226-2.079-21.39-4.025-26.307l0.526,3.313L140.078,292.021z"/>
			<path opacity="0.85" fill="#FAFAFA" d="M186.41,261.304c0,0-4.948,9.422-9.447,6.459c-5.056-3.33-16.362-16.939-27.024-15.25
				c-7.063,1.12-13.766-2.831-14.855,5.393l4.403,34.107l0.591,0.008c-0.138-1.244-0.414-2.61-0.925-4.257l23.883-4.979
				c0,0,1.785,1.656,3.631,6.32l-3.613-22.428c0,0,13.694,12.998,19.667,7.609c5.972-5.389,6.942-10.747,6.942-10.747
				L186.41,261.304z"/>
			<path opacity="0.85" fill="#FAFAFA" d="M163.036,282.785l-23.883,4.979c0.512,1.646,0.788,3.013,0.925,4.257l27.115,0.351
				l-0.526-3.266C164.821,284.441,163.036,282.785,163.036,282.785z"/>
		</g>
		<g>
			<path fill="#232049" d="M166.181,328.885c-0.009,0.115-1.311,0.079-2.893,0.275c-1.583,0.188-2.839,0.532-2.875,0.423
				c-0.037-0.095,1.198-0.619,2.828-0.813C164.87,328.569,166.194,328.784,166.181,328.885z"/>
		</g>
		<g>
			<path fill="#232049" d="M167.001,326.799c0.026,0.041-0.26,0.294-0.804,0.58c-0.542,0.286-1.354,0.578-2.291,0.689
				c-0.937,0.107-1.795,0.01-2.389-0.144c-0.596-0.152-0.932-0.334-0.916-0.379c0.032-0.117,1.466,0.355,3.259,0.132
				C165.656,327.482,166.943,326.692,167.001,326.799z"/>
		</g>
		<g>
			<path fill="#232049" d="M143.449,324.196c-0.042,0.092-1.111-0.436-1.964-1.59c-0.863-1.148-1.063-2.323-0.963-2.337
				c0.112-0.034,0.465,1.025,1.278,2.102C142.598,323.457,143.514,324.099,143.449,324.196z"/>
		</g>
		<g>
			<path fill="#232049" d="M142.888,324.858c-0.057,0.012-0.137-0.2-0.42-0.406c-0.276-0.206-0.746-0.455-1.23-0.75
				c-0.982-0.58-1.795-1.032-1.75-1.133c0.042-0.098,0.945,0.201,1.95,0.794c0.498,0.305,0.938,0.581,1.221,0.886
				C142.945,324.56,142.939,324.859,142.888,324.858z"/>
		</g>
		<g>
			<path fill="#232049" d="M160.005,306.522c0.001,0.046-0.648,0.078-1.624-0.24c-0.979-0.309-2.21-0.96-3.579-1.638
				c-1.368-0.688-2.596-1.332-3.476-1.814c-0.88-0.483-1.412-0.806-1.388-0.854c0.024-0.048,0.601,0.187,1.513,0.606
				c0.912,0.42,2.16,1.023,3.527,1.712c1.373,0.68,2.579,1.366,3.497,1.728C159.392,306.395,160.011,306.46,160.005,306.522z"/>
		</g>
		<g>
			<path fill="#F7D3A9" d="M151.438,237.675l2.553,6.588c0.568,1.467-0.165,3.116-1.634,3.678l-0.868,0.332l0.419,4.829
				l-6.727,0.584l-1.183-13.627L151.438,237.675z"/>
			<path fill="#624FB5" d="M147.721,250.112c0,0,2.577-2.242,2.358-4.245c0,0-3.801-1.582-2.77-2.686s3.229,0.847,3.229,0.847
				s-1.516-2.911-1.181-3.729c0,0,4.925-0.434,3.876-3.267c0,0-1.478-1.124-4.592-1.03s-4.367,5.477-4.367,5.477L147.721,250.112z"
				/>
			<linearGradient id="SVGID_35_" gradientUnits="userSpaceOnUse" x1="126.3481" y1="262.0986" x2="154.6934" y2="262.0986">
				<stop  offset="0" style="stop-color:#094C7E"/>
				<stop  offset="0.0282" style="stop-color:#0C4E81"/>
				<stop  offset="0.4516" style="stop-color:#2E6EA7"/>
				<stop  offset="0.7903" style="stop-color:#4382BF"/>
				<stop  offset="1" style="stop-color:#4B89C8"/>
			</linearGradient>
			<path fill="url(#SVGID_35_)" d="M149.129,236.345c-2.903-0.772-6.162-0.049-8.464,1.881c-2.302,1.93-3.584,5.013-3.33,8.006
				c0.179,2.102,1.047,4.295,0.226,6.238c-0.422,0.998-1.238,1.769-2.039,2.499c-2.339,2.137-4.759,4.238-6.573,6.836
				c-1.813,2.598-2.986,5.804-2.485,8.932c0.213,1.329,0.734,2.625,1.605,3.651c0.458,0.54,1.008,1.003,1.411,1.584
				c1.439,2.079,0.631,4.983,1.513,7.353c1.131,3.041,4.695,4.399,7.923,4.727c4.429,0.449,9.204-0.489,12.468-3.516
				c3.264-3.027,4.479-8.421,1.965-12.095c-1.244-1.818-3.36-3.417-3.153-5.61c0.129-1.362,1.157-2.444,1.749-3.679
				c1.185-2.471,0.399-5.725-1.782-7.383c-0.805-0.612-1.76-1.019-2.505-1.702s-1.249-1.803-0.802-2.709
				c0.344-0.699,1.148-1.076,1.508-1.766c0.538-1.032-0.115-2.28-0.875-3.162c-0.76-0.881-1.696-1.755-1.806-2.913
				c-0.083-0.881,0.34-1.721,0.752-2.504c0.813-1.545,1.625-3.091,2.438-4.636"/>
		</g>
	</g>
	<g>
		<path fill="#58BB85" d="M52.408,291.882c-9.817,7.446-25.715,0.662-34.521-6.961c-1.537-1.33-2.671-3.091-3.088-5.08
			c-2.004-9.553,13.089-11.906,13.53-20.466c0.193-3.747-2.63-6.854-4.71-9.977c-4.751-7.129-6.095-16.141-5.09-24.648
			c1.005-8.507,4.193-16.607,7.905-24.328c3.037-6.315,8.459-13.455,15.3-11.938c4.396,0.976,7.216,5.348,8.494,9.665
			c1.758,5.936,1.505,12.313,0.324,18.389c-0.523,2.692-1.223,5.487-0.498,8.132c1.854,6.771,11.353,8.303,14.797,14.419
			c3.508,6.228-0.677,13.809-4.55,19.816c-3.314,5.14-5.349,8.328-3.176,12.719c0.575,1.163,1.421,2.164,2.404,3.011
			C61.62,276.434,65.532,281.927,52.408,291.882z"/>
		<g>
			<path fill="#453C87" d="M41.247,315.499c-0.108,0-0.196-17.864-0.196-39.896c0-22.039,0.088-39.899,0.196-39.899
				s0.196,17.86,0.196,39.899C41.443,297.635,41.355,315.499,41.247,315.499z"/>
		</g>
		<g>
			<path fill="#453C87" d="M39.96,287.018c-0.018,0.021-0.244-0.141-0.638-0.448c-0.413-0.33-0.972-0.778-1.652-1.322
				c-1.39-1.122-3.315-2.664-5.473-4.326c-2.16-1.661-4.144-3.127-5.584-4.184c-0.701-0.519-1.276-0.944-1.701-1.259
				c-0.399-0.302-0.613-0.479-0.597-0.501c0.015-0.022,0.257,0.112,0.684,0.375c0.426,0.262,1.033,0.657,1.774,1.157
				c1.483,1.001,3.499,2.435,5.664,4.1c2.164,1.666,4.065,3.247,5.412,4.425c0.673,0.589,1.211,1.074,1.574,1.419
				C39.786,286.798,39.978,286.998,39.96,287.018z"/>
		</g>
		<g>
			<path fill="#453C87" d="M52.064,245.046c0.042,0.036-0.607,0.855-1.673,2.164c-1.083,1.33-2.546,3.127-4.164,5.112
				c-1.604,1.997-3.056,3.803-4.13,5.141c-1.058,1.315-1.723,2.121-1.767,2.088c-0.022-0.017,0.115-0.24,0.382-0.631
				c0.266-0.391,0.664-0.946,1.165-1.627c1.002-1.36,2.423-3.212,4.045-5.218c1.622-2.004,3.136-3.78,4.257-5.044
				c0.561-0.633,1.021-1.138,1.348-1.479C51.854,245.209,52.043,245.028,52.064,245.046z"/>
		</g>
	</g>
	<g>
		<path fill="none" stroke="#7972A8" stroke-width="0.05" stroke-miterlimit="10" d="M434.485,270.178"/>
	</g>
	<g>
		<g>
			<path fill="#76CC9B" d="M482.043,293.11c-6.073,4.606-15.907,0.409-21.354-4.306c-0.951-0.823-1.652-1.912-1.911-3.144
				c-1.239-5.909,8.098-7.365,8.37-12.66c0.119-2.317-1.627-4.24-2.914-6.172c-2.938-4.409-3.771-9.984-3.148-15.247
				c0.621-5.264,2.594-10.274,4.891-15.051c1.878-3.906,5.232-8.323,9.465-7.384c2.719,0.604,4.464,3.308,5.255,5.979
				c1.087,3.672,0.931,7.616,0.2,11.376c-0.323,1.665-0.756,3.394-0.309,5.03c1.147,4.188,7.023,5.136,9.154,8.92
				c2.17,3.852-0.419,8.542-2.814,12.258c-2.05,3.18-3.309,5.152-1.965,7.869c0.355,0.719,0.879,1.338,1.487,1.861
				C487.742,283.554,490.161,286.952,482.043,293.11z"/>
			<g>
				<path fill="#453C87" d="M473.441,316.188c-0.108,0-0.196-17.864-0.196-39.896c0-22.039,0.088-39.899,0.196-39.899
					s0.196,17.86,0.196,39.899C473.638,298.324,473.55,316.188,473.441,316.188z"/>
			</g>
		</g>
		<path fill="#58BB85" d="M464.875,288.755c-9.817,7.447-25.715,0.662-34.521-6.96c-1.538-1.331-2.672-3.091-3.089-5.081
			c-2.004-9.553,13.089-11.905,13.53-20.466c0.193-3.746-2.63-6.854-4.711-9.976c-4.75-7.129-6.095-16.141-5.09-24.648
			s4.193-16.608,7.906-24.329c3.036-6.315,8.459-13.455,15.3-11.937c4.396,0.976,7.216,5.348,8.494,9.665
			c1.758,5.936,1.505,12.312,0.324,18.389c-0.522,2.691-1.223,5.486-0.498,8.132c1.854,6.771,11.353,8.302,14.798,14.419
			c3.508,6.227-0.678,13.809-4.551,19.815c-3.313,5.14-5.348,8.328-3.176,12.72c0.575,1.162,1.422,2.164,2.405,3.01
			C474.087,273.308,477.999,278.801,464.875,288.755z"/>
		<g>
			<path fill="#453C87" d="M453.714,312.373c-0.108,0-0.196-17.864-0.196-39.896c0-22.039,0.088-39.899,0.196-39.899
				s0.196,17.86,0.196,39.899C453.91,294.509,453.822,312.373,453.714,312.373z"/>
		</g>
		<g>
			<path fill="#453C87" d="M453.714,283.892c-0.019,0.021-0.244-0.141-0.638-0.449c-0.413-0.33-0.972-0.777-1.652-1.322
				c-1.391-1.121-3.315-2.664-5.474-4.326c-2.159-1.661-4.144-3.127-5.584-4.184c-0.7-0.519-1.276-0.944-1.701-1.259
				c-0.398-0.301-0.612-0.479-0.597-0.501c0.015-0.022,0.258,0.112,0.684,0.375s1.033,0.657,1.774,1.158
				c1.483,1,3.499,2.434,5.664,4.1c2.163,1.666,4.064,3.246,5.411,4.424c0.674,0.589,1.211,1.074,1.574,1.42
				C453.539,283.671,453.731,283.871,453.714,283.892z"/>
		</g>
		<g>
			<path fill="#453C87" d="M464.531,241.92c0.042,0.036-0.607,0.855-1.674,2.164c-1.082,1.33-2.546,3.126-4.163,5.112
				c-1.604,1.996-3.056,3.803-4.13,5.14c-1.058,1.315-1.723,2.121-1.768,2.088c-0.021-0.017,0.116-0.24,0.383-0.63
				c0.266-0.392,0.664-0.947,1.165-1.627c1.002-1.36,2.423-3.213,4.045-5.218c1.621-2.004,3.136-3.781,4.257-5.045
				c0.561-0.632,1.021-1.138,1.348-1.479C464.32,242.083,464.511,241.901,464.531,241.92z"/>
		</g>
	</g>
	<g>
		<circle fill="#044D7E" cx="73.091" cy="168.143" r="17.859"/>
		<polygon fill="#044D7E" points="80.516,183.295 89.207,186.001 88.558,177.069 		"/>
		<text transform="matrix(-1 0 0 -1 76.2456 165.5254)" fill="#F5F1EB" font-family="'Riffic-Bold'" font-size="22.3929"></text>
	</g>
</g>
<g id="Designed_by_freepik">
	<g>
		<g>
			<path fill="#8982BC" d="M174.978,368.602c-0.125-0.412-0.188-0.856-0.188-1.335"/>
		</g>
	</g>
</g>
</svg>
