<?xml version="1.0" encoding="utf-8"?>
<!-- Generator: Adobe Illustrator 16.0.0, SVG Export Plug-In . SVG Version: 6.00 Build 0)  -->
<!DOCTYPE svg PUBLIC "-//W3C//DTD SVG 1.1//EN" "http://www.w3.org/Graphics/SVG/1.1/DTD/svg11.dtd">
<svg version="1.1" id="LOGOTYPES" xmlns="http://www.w3.org/2000/svg" xmlns:xlink="http://www.w3.org/1999/xlink" x="0px" y="0px"
	 width="800px" height="800px" viewBox="0 0 800 800" enable-background="new 0 0 800 800" xml:space="preserve">
<g>
	<g>
		<g>
			<linearGradient id="SVGID_1_" gradientUnits="userSpaceOnUse" x1="854.4795" y1="579.4971" x2="356.2977" y2="72.9025">
				<stop  offset="0" style="stop-color:#094C7E"/>
				<stop  offset="0.0282" style="stop-color:#0C4E81"/>
				<stop  offset="0.4516" style="stop-color:#2E6EA7"/>
				<stop  offset="0.7903" style="stop-color:#4382BF"/>
				<stop  offset="1" style="stop-color:#4B89C8"/>
			</linearGradient>
			<path fill="url(#SVGID_1_)" d="M791.708,266.981c-141.158,0-255.571-114.421-255.571-255.557H263.743
				c0,4.402,0.06,8.8,0.165,13.176c0.045,1.468,0.105,2.933,0.157,4.397c0.096,2.912,0.192,5.819,0.331,8.721
				c0.088,1.744,0.21,3.483,0.314,5.218c0.148,2.602,0.296,5.208,0.496,7.793c0.131,1.87,0.296,3.722,0.453,5.587
				c0.21,2.454,0.419,4.908,0.653,7.349c0.193,1.931,0.41,3.849,0.62,5.771c0.253,2.353,0.515,4.707,0.803,7.052
				c0.244,1.97,0.513,3.939,0.775,5.91c0.305,2.28,0.62,4.55,0.951,6.821c0.296,1.997,0.61,3.993,0.923,5.985
				c0.357,2.218,0.725,4.437,1.099,6.651c0.349,2.009,0.715,4.014,1.082,6.023c0.4,2.171,0.818,4.333,1.247,6.499
				c0.401,2.018,0.801,4.041,1.228,6.054c0.445,2.118,0.906,4.232,1.378,6.341c0.453,2.041,0.906,4.076,1.385,6.103
				c0.488,2.062,1.003,4.114,1.509,6.167c0.515,2.049,1.011,4.102,1.552,6.146c0.515,2.001,1.063,3.993,1.612,5.979
				c0.567,2.075,1.125,4.154,1.728,6.216c0.548,1.909,1.123,3.809,1.69,5.706c0.636,2.131,1.263,4.258,1.926,6.372
				c0.541,1.73,1.116,3.444,1.674,5.17c0.741,2.258,1.465,4.528,2.224,6.782c0.305,0.893,0.627,1.773,0.941,2.667
				c2.101,6.081,4.306,12.112,6.634,18.092c0.261,0.675,0.505,1.364,0.766,2.041c1.003,2.549,2.049,5.082,3.096,7.619
				c0.522,1.28,1.037,2.575,1.578,3.857c1.019,2.419,2.074,4.82,3.12,7.218c0.601,1.369,1.185,2.742,1.795,4.098
				c1.063,2.375,2.153,4.725,3.251,7.082c0.636,1.359,1.264,2.728,1.909,4.079c1.116,2.345,2.258,4.669,3.409,6.992
				c0.663,1.347,1.325,2.686,2.005,4.028c1.168,2.318,2.362,4.62,3.566,6.916c0.688,1.317,1.376,2.624,2.074,3.928
				c1.237,2.315,2.493,4.62,3.766,6.908c0.688,1.256,1.395,2.506,2.1,3.752c1.309,2.319,2.632,4.625,3.976,6.917
				c0.696,1.199,1.402,2.384,2.109,3.57c1.385,2.332,2.789,4.654,4.21,6.956c0.68,1.106,1.377,2.205,2.057,3.299
				c1.482,2.367,2.973,4.725,4.498,7.065c0.646,0.989,1.299,1.974,1.943,2.956c1.604,2.432,3.217,4.854,4.848,7.256
				c0.549,0.806,1.116,1.604,1.674,2.405c1.76,2.555,3.54,5.104,5.342,7.624c0.367,0.515,0.75,1.02,1.117,1.525
				c95.896,132.724,251.953,219.112,428.205,219.112L651.71,399.379c50.891-10.038,98.242-29.896,139.998-57.565V266.981z"/>
			<linearGradient id="SVGID_2_" gradientUnits="userSpaceOnUse" x1="290.8936" y1="15.9624" x2="633.1976" y2="350.5154">
				<stop  offset="0" style="stop-color:#094C7E"/>
				<stop  offset="0.0282" style="stop-color:#0C4E81"/>
				<stop  offset="0.4516" style="stop-color:#2E6EA7"/>
				<stop  offset="0.7903" style="stop-color:#4382BF"/>
				<stop  offset="1" style="stop-color:#4B89C8"/>
			</linearGradient>
			<path fill="url(#SVGID_2_)" d="M263.743,11.424h272.394c0,141.136,114.413,255.557,255.571,255.557v272.396
				C500.118,539.377,263.743,302.997,263.743,11.424z"/>
			<linearGradient id="SVGID_3_" gradientUnits="userSpaceOnUse" x1="746.2754" y1="469.1279" x2="342.0839" y2="58.1109">
				<stop  offset="0" style="stop-color:#094C7E"/>
				<stop  offset="0.0282" style="stop-color:#0C4E81"/>
				<stop  offset="0.4516" style="stop-color:#2E6EA7"/>
				<stop  offset="0.7903" style="stop-color:#4382BF"/>
				<stop  offset="1" style="stop-color:#4B89C8"/>
			</linearGradient>
			<path fill="url(#SVGID_3_)" d="M536.137,11.424H263.743c0,136.014,51.458,260.012,135.943,353.608
				c52.924,26.671,112.67,41.786,175.975,41.786c79.868,0,154.112-23.959,216.047-65.004v-74.833
				C650.55,266.981,536.137,152.56,536.137,11.424z"/>
			<linearGradient id="SVGID_4_" gradientUnits="userSpaceOnUse" x1="524.3232" y1="314.1563" x2="411.198" y2="90.3394">
				<stop  offset="0" style="stop-color:#094C7E"/>
				<stop  offset="0.0282" style="stop-color:#0C4E81"/>
				<stop  offset="0.4516" style="stop-color:#2E6EA7"/>
				<stop  offset="0.7903" style="stop-color:#4382BF"/>
				<stop  offset="1" style="stop-color:#4B89C8"/>
			</linearGradient>
			<path fill="url(#SVGID_4_)" d="M360.974,316.792c16.415,23.105,34.66,44.814,54.491,64.964l165.296-226.076
				c-0.01-0.004-0.01-0.004-0.01-0.009c-1.22-1.778-2.379-3.591-3.556-5.396c-0.785-1.221-1.577-2.437-2.337-3.662
				c-1.123-1.787-2.222-3.596-3.294-5.418c-0.775-1.298-1.517-2.61-2.268-3.927c-1.027-1.808-2.057-3.609-3.041-5.452
				c-1.159-2.162-2.258-4.354-3.356-6.551c-1.159-2.332-2.274-4.681-3.366-7.043c-0.758-1.635-1.507-3.265-2.222-4.917
				c-0.741-1.713-1.464-3.43-2.179-5.161c-0.732-1.801-1.439-3.614-2.136-5.435c-0.62-1.604-1.237-3.2-1.823-4.816
				c-1.159-3.221-2.266-6.464-3.295-9.742c-0.4-1.255-0.748-2.532-1.125-3.8c-0.705-2.367-1.395-4.747-2.03-7.144
				c-0.392-1.469-0.749-2.942-1.116-4.419c-0.584-2.372-1.133-4.764-1.656-7.166c-0.287-1.33-0.592-2.654-0.854-3.998
				c-0.723-3.634-1.395-7.292-1.962-10.983c-0.096-0.637-0.165-1.282-0.261-1.914c-0.471-3.204-0.881-6.429-1.229-9.672
				c-0.131-1.255-0.243-2.515-0.357-3.774c-0.262-2.794-0.479-5.596-0.646-8.412c-0.069-1.199-0.148-2.393-0.208-3.596
				c-0.176-3.931-0.298-7.875-0.298-11.851L360.338,315.819C360.557,316.12,360.765,316.478,360.974,316.792z"/>
			<linearGradient id="SVGID_5_" gradientUnits="userSpaceOnUse" x1="447.1465" y1="461.0771" x2="745.5986" y2="258.132">
				<stop  offset="0" style="stop-color:#FDB153;stop-opacity:0"/>
				<stop  offset="0.0527" style="stop-color:#F7A04D;stop-opacity:0.0263"/>
				<stop  offset="0.2019" style="stop-color:#E8773D;stop-opacity:0.1009"/>
				<stop  offset="0.3545" style="stop-color:#DC552F;stop-opacity:0.1772"/>
				<stop  offset="0.509" style="stop-color:#D23A25;stop-opacity:0.2545"/>
				<stop  offset="0.6662" style="stop-color:#CB271E;stop-opacity:0.3331"/>
				<stop  offset="0.8277" style="stop-color:#C71C19;stop-opacity:0.4138"/>
				<stop  offset="1" style="stop-color:#C61818;stop-opacity:0.5"/>
			</linearGradient>
			<path opacity="0.2" fill="url(#SVGID_5_)" d="M791.708,266.981c-41.903,0-81.419-10.146-116.313-28.021L427.407,393.556l0,0
				c16.059,15.312,33.091,29.595,50.971,42.796l180.262-42.796l133.068-85.834V266.981z"/>
			<linearGradient id="SVGID_6_" gradientUnits="userSpaceOnUse" x1="235.6982" y1="796.8857" x2="870.1232" y2="295.4856">
				<stop  offset="0" style="stop-color:#094C7E"/>
				<stop  offset="0.0282" style="stop-color:#0C4E81"/>
				<stop  offset="0.4516" style="stop-color:#2E6EA7"/>
				<stop  offset="0.7903" style="stop-color:#4382BF"/>
				<stop  offset="1" style="stop-color:#4B89C8"/>
			</linearGradient>
			<path fill="url(#SVGID_6_)" d="M263.743,794.934h272.394c0-141.14,114.413-255.557,255.571-255.557V266.981
				C500.118,266.981,263.743,503.356,263.743,794.934z"/>
			<linearGradient id="SVGID_7_" gradientUnits="userSpaceOnUse" x1="339.1758" y1="687.8262" x2="1110.0415" y2="292.1634">
				<stop  offset="0" style="stop-color:#094C7E"/>
				<stop  offset="0.0282" style="stop-color:#0C4E81"/>
				<stop  offset="0.4516" style="stop-color:#2E6EA7"/>
				<stop  offset="0.7903" style="stop-color:#4382BF"/>
				<stop  offset="1" style="stop-color:#4B89C8"/>
			</linearGradient>
			<path fill="url(#SVGID_7_)" d="M466.565,653.463c0,49.896,9.432,97.576,26.447,141.471h43.124
				c0-141.14,114.413-255.557,255.571-255.557V267.496C607.104,299.118,466.565,459.828,466.565,653.463z"/>
			<path opacity="0.5" fill="none" stroke="#FFEE00" stroke-width="0.5" stroke-miterlimit="10" d="M791.708,267.496
				c-184.604,31.622-325.143,192.332-325.143,385.967c0,49.896,9.432,97.576,26.447,141.471"/>
			<linearGradient id="SVGID_8_" gradientUnits="userSpaceOnUse" x1="577.9326" y1="756.1729" x2="419.329" y2="442.3777">
				<stop  offset="0" style="stop-color:#094C7E"/>
				<stop  offset="0.0282" style="stop-color:#0C4E81"/>
				<stop  offset="0.4516" style="stop-color:#2E6EA7"/>
				<stop  offset="0.7903" style="stop-color:#4382BF"/>
				<stop  offset="1" style="stop-color:#4B89C8"/>
			</linearGradient>
			<path fill="url(#SVGID_8_)" d="M420.225,419.82c-13.895,13.751-27.005,28.273-39.306,43.489l155.218,331.624
				c0-55.429,17.706-106.689,47.685-148.563L420.225,419.82z"/>
			<linearGradient id="SVGID_9_" gradientUnits="userSpaceOnUse" x1="18.1699" y1="280.3457" x2="693.5259" y2="1042.6799">
				<stop  offset="0" style="stop-color:#094C7E"/>
				<stop  offset="0.0282" style="stop-color:#0C4E81"/>
				<stop  offset="0.4516" style="stop-color:#2E6EA7"/>
				<stop  offset="0.7903" style="stop-color:#4382BF"/>
				<stop  offset="1" style="stop-color:#4B89C8"/>
			</linearGradient>
			<path fill="url(#SVGID_9_)" d="M536.137,794.934H263.743c0-141.14-114.422-255.557-255.571-255.557V266.981
				C299.762,266.981,536.137,503.356,536.137,794.934z"/>
			<linearGradient id="SVGID_10_" gradientUnits="userSpaceOnUse" x1="366.7095" y1="342.9297" x2="118.6165" y2="552.2581">
				<stop  offset="0" style="stop-color:#094C7E"/>
				<stop  offset="0.0282" style="stop-color:#0C4E81"/>
				<stop  offset="0.4516" style="stop-color:#2E6EA7"/>
				<stop  offset="0.7903" style="stop-color:#4382BF"/>
				<stop  offset="1" style="stop-color:#4B89C8"/>
			</linearGradient>
			<path fill="url(#SVGID_10_)" d="M24.805,539.973c2.72,0.175,5.422,0.357,8.115,0.62c1.674,0.157,3.33,0.366,4.987,0.562
				c2.379,0.274,4.759,0.563,7.113,0.902c1.787,0.257,3.556,0.55,5.334,0.846c2.188,0.367,4.375,0.75,6.546,1.168
				c1.856,0.357,3.705,0.732,5.544,1.133c2.048,0.445,4.08,0.92,6.111,1.413c1.909,0.462,3.809,0.928,5.701,1.433
				c1.892,0.503,3.766,1.051,5.64,1.602c1.979,0.574,3.958,1.142,5.911,1.769c1.657,0.527,3.295,1.106,4.934,1.669
				c2.126,0.725,4.262,1.431,6.364,2.21c0.776,0.293,1.542,0.615,2.318,0.915c6.05,2.314,12.004,4.83,17.827,7.585
				c0.131,0.061,0.262,0.108,0.384,0.17c2.641,1.259,5.248,2.593,7.836,3.936c0.811,0.419,1.622,0.819,2.415,1.242
				c2.484,1.313,4.916,2.688,7.349,4.083c0.863,0.503,1.744,0.994,2.606,1.5c2.406,1.425,4.786,2.895,7.148,4.395
				c0.811,0.513,1.621,1.027,2.423,1.555c2.397,1.557,4.75,3.146,7.096,4.786c0.697,0.488,1.385,0.985,2.074,1.482
				c2.424,1.722,4.812,3.482,7.166,5.287c0.479,0.375,0.951,0.754,1.43,1.128c2.537,1.975,5.039,3.976,7.497,6.041l216.377-169.256
				l-0.653-1.466c-22.038-22.873-46.123-43.759-71.96-62.376L8.172,539.377c4.175,0,8.333,0.117,12.458,0.317
				C22.033,539.76,23.41,539.882,24.805,539.973z"/>
			<linearGradient id="SVGID_11_" gradientUnits="userSpaceOnUse" x1="5.1084" y1="524.1387" x2="540.6153" y2="-35.2416">
				<stop  offset="0" style="stop-color:#094C7E"/>
				<stop  offset="0.0282" style="stop-color:#0C4E81"/>
				<stop  offset="0.4516" style="stop-color:#2E6EA7"/>
				<stop  offset="0.7903" style="stop-color:#4382BF"/>
				<stop  offset="1" style="stop-color:#4B89C8"/>
			</linearGradient>
			<path fill="url(#SVGID_11_)" d="M536.137,11.424H263.743c0,141.136-114.422,255.557-255.571,255.557v272.396
				C299.762,539.377,536.137,302.997,536.137,11.424z"/>
			<linearGradient id="SVGID_12_" gradientUnits="userSpaceOnUse" x1="903.6426" y1="-306.0015" x2="163.4818" y2="294.3102">
				<stop  offset="0" style="stop-color:#094C7E"/>
				<stop  offset="0.0282" style="stop-color:#0C4E81"/>
				<stop  offset="0.4516" style="stop-color:#2E6EA7"/>
				<stop  offset="0.7903" style="stop-color:#4382BF"/>
				<stop  offset="1" style="stop-color:#4B89C8"/>
			</linearGradient>
			<path fill="url(#SVGID_12_)" d="M536.137,11.424H263.743c0,140.983-114.169,255.3-255.118,255.549
				c62.162,41.501,136.842,65.735,217.198,65.735c100.806,0,192.692-38.107,262.109-100.666
				C518.859,164.903,536.137,90.184,536.137,11.424z"/>
		</g>
	</g>
</g>
</svg>
